<?xml version="1.0" encoding="utf-8"?>
<!-- Generator: Adobe Illustrator 22.0.1, SVG Export Plug-In . SVG Version: 6.00 Build 0)  -->
<svg version="1.1" id="레이어_1" xmlns="http://www.w3.org/2000/svg" xmlns:xlink="http://www.w3.org/1999/xlink" x="0px"
	 y="0px" viewBox="0 0 157.3 48" style="enable-background:new 0 0 157.3 48;" xml:space="preserve">
<style type="text/css">
	.st0{fill:url(#SVGID_1_);}
	.st1{fill:url(#SVGID_2_);}
	.st2{fill:url(#SVGID_3_);}
	.st3{fill:url(#SVGID_4_);}
	.st4{fill:url(#SVGID_5_);}
	.st5{fill:url(#SVGID_6_);}
	.st6{fill:url(#SVGID_7_);}
	.st7{fill:url(#SVGID_8_);}
	.st8{fill:url(#SVGID_9_);}
	.st9{fill:url(#SVGID_10_);}
	.st10{fill:url(#SVGID_11_);}
	.st11{fill:url(#SVGID_12_);}
	.st12{fill:url(#SVGID_13_);}
	.st13{fill:url(#SVGID_14_);}
	.st14{fill:url(#SVGID_15_);}
</style>
<g>
	<linearGradient id="SVGID_1_" gradientUnits="userSpaceOnUse" x1="6.6292" y1="7" x2="6.6292" y2="52.6207">
		<stop  offset="0" style="stop-color:#2C214D"/>
		<stop  offset="0.2525" style="stop-color:#822140"/>
		<stop  offset="0.5525" style="stop-color:#AE2939"/>
		<stop  offset="1" style="stop-color:#FCCA29"/>
	</linearGradient>
	<path class="st0" d="M0.4,4.2h2L10,14.7h0V4.6h2.8V20h-2L3.2,9.4h0v10.2H0.4V4.2z"/>
	<linearGradient id="SVGID_2_" gradientUnits="userSpaceOnUse" x1="18.6868" y1="7" x2="18.6868" y2="52.6207">
		<stop  offset="0" style="stop-color:#2C214D"/>
		<stop  offset="0.2525" style="stop-color:#822140"/>
		<stop  offset="0.5525" style="stop-color:#AE2939"/>
		<stop  offset="1" style="stop-color:#FCCA29"/>
	</linearGradient>
	<path class="st1" d="M17.8,7.1v3.3h4.5V13h-4.5v4.1h4.7v2.6h-7.5V4.6h7.5v2.6H17.8z"/>
	<linearGradient id="SVGID_3_" gradientUnits="userSpaceOnUse" x1="32.6544" y1="7" x2="32.6544" y2="52.6207">
		<stop  offset="0" style="stop-color:#2C214D"/>
		<stop  offset="0.2525" style="stop-color:#822140"/>
		<stop  offset="0.5525" style="stop-color:#AE2939"/>
		<stop  offset="1" style="stop-color:#FCCA29"/>
	</linearGradient>
	<path class="st2" d="M28.9,14.9L28.9,14.9l2.9-10.5h1.7l3,10.5h0l2.8-10.3h3L37.4,20h-2.1l-2.9-9.9h0L29.7,20h-2.1L23,4.6h3
		L28.9,14.9z"/>
	<linearGradient id="SVGID_4_" gradientUnits="userSpaceOnUse" x1="54.7674" y1="7" x2="54.7674" y2="52.6207">
		<stop  offset="0" style="stop-color:#2C214D"/>
		<stop  offset="0.2525" style="stop-color:#822140"/>
		<stop  offset="0.5525" style="stop-color:#AE2939"/>
		<stop  offset="1" style="stop-color:#FCCA29"/>
	</linearGradient>
	<path class="st3" d="M57.2,10.8c0,4.2-2.1,6.8-5,6.8s-5-2.6-5-6.8c0-4.2,2.1-6.8,5-6.8S57.2,6.6,57.2,10.8z M50.3,10.8
		c0,2.6,0.8,3.9,1.9,3.9c1.1,0,1.9-1.2,1.9-3.9s-0.8-3.9-1.9-3.9C51,6.9,50.3,8.2,50.3,10.8z M62.3,2.7v18.9h-3.2V2.7H62.3z"/>
	<linearGradient id="SVGID_5_" gradientUnits="userSpaceOnUse" x1="72.9139" y1="7" x2="72.9139" y2="52.6207">
		<stop  offset="0" style="stop-color:#2C214D"/>
		<stop  offset="0.2525" style="stop-color:#822140"/>
		<stop  offset="0.5525" style="stop-color:#AE2939"/>
		<stop  offset="1" style="stop-color:#FCCA29"/>
	</linearGradient>
	<path class="st4" d="M81.3,16.9v2.6H64.5v-2.6h6.8v-3.4h-5.1V4.1h13.4v9.4h-5.1v3.4H81.3z M69.3,11h7.1V6.6h-7.1V11z"/>
	<linearGradient id="SVGID_6_" gradientUnits="userSpaceOnUse" x1="90.6351" y1="7" x2="90.6351" y2="52.6207">
		<stop  offset="0" style="stop-color:#2C214D"/>
		<stop  offset="0.2525" style="stop-color:#822140"/>
		<stop  offset="0.5525" style="stop-color:#AE2939"/>
		<stop  offset="1" style="stop-color:#FCCA29"/>
	</linearGradient>
	<path class="st5" d="M99,17v2.6H82.2V17H99z M94.1,6.5H84V4h13.2v6.6h-10v1.6h10.4v2.5H84.1V8h10V6.5z"/>
	<linearGradient id="SVGID_7_" gradientUnits="userSpaceOnUse" x1="108.3953" y1="7" x2="108.3953" y2="52.6207">
		<stop  offset="0" style="stop-color:#2C214D"/>
		<stop  offset="0.2525" style="stop-color:#822140"/>
		<stop  offset="0.5525" style="stop-color:#AE2939"/>
		<stop  offset="1" style="stop-color:#FCCA29"/>
	</linearGradient>
	<path class="st6" d="M104.1,11.8c-1.2,0.3-2.1,0.3-3.1,0.3h-0.8V3.9h3.8v2.5h-1v3.2c0.3,0,0.6-0.1,0.9-0.2L104.1,11.8z M116.6,19
		v2.5H103v-5.4h10v-0.6H103V13h13.2v5.3h-10V19H116.6z M109,11.8c-1.4,0.3-2.4,0.3-3.6,0.3h-0.9V3.9h4.2v2.5h-1.3v3.2
		c0.4,0,0.9-0.1,1.3-0.2L109,11.8z M109.7,6.6V3.2h2.9v9.2h-2.9V9.1h-1.3V6.6H109.7z M116.2,12.4h-3V2.8h3V12.4z"/>
	<linearGradient id="SVGID_8_" gradientUnits="userSpaceOnUse" x1="130.9774" y1="7" x2="130.9774" y2="52.6207">
		<stop  offset="0" style="stop-color:#2C214D"/>
		<stop  offset="0.2525" style="stop-color:#822140"/>
		<stop  offset="0.5525" style="stop-color:#AE2939"/>
		<stop  offset="1" style="stop-color:#FCCA29"/>
	</linearGradient>
	<path class="st7" d="M126.9,14.7c2.7,0,4.8-0.2,7.1-0.6l0.3,2.6c-2.8,0.5-5.5,0.6-9,0.6h-1.7v-8h5.6V6.8h-5.6V4.3h8.9v7.6h-5.6
		V14.7z M138.3,2.8v18.9h-3.2V2.8H138.3z"/>
	<linearGradient id="SVGID_9_" gradientUnits="userSpaceOnUse" x1="148.6688" y1="7" x2="148.6688" y2="52.6207">
		<stop  offset="0" style="stop-color:#2C214D"/>
		<stop  offset="0.2525" style="stop-color:#822140"/>
		<stop  offset="0.5525" style="stop-color:#AE2939"/>
		<stop  offset="1" style="stop-color:#FCCA29"/>
	</linearGradient>
	<path class="st8" d="M147.7,13.7c-1.3-0.6-2.2-1.7-2.8-2.9c-0.7,1.4-1.7,2.5-3.2,3.2l-1.7-2.5c2.6-1.2,3.4-3.4,3.4-5.5V4h3.1v2
		c0,2.1,0.7,4.1,3,5.3L147.7,13.7z M151.6,14.9c0,1.6,1.3,3.6,5.7,4.2l-1.1,2.5c-3.1-0.4-5-1.5-6.1-3.1c-1.1,1.5-3.1,2.7-6.1,3.1
		l-1.1-2.5c4.4-0.5,5.7-2.5,5.7-4.2v-0.3h3.2V14.9z M149.6,8.9h-1.8V6.3h1.8V3.1h3v10.6h-3V8.9z M156.4,15.5h-3V2.8h3V15.5z"/>
	<linearGradient id="SVGID_10_" gradientUnits="userSpaceOnUse" x1="38.1595" y1="7" x2="38.1595" y2="52.6207">
		<stop  offset="0" style="stop-color:#2C214D"/>
		<stop  offset="0.2525" style="stop-color:#822140"/>
		<stop  offset="0.5525" style="stop-color:#AE2939"/>
		<stop  offset="1" style="stop-color:#FCCA29"/>
	</linearGradient>
	<path class="st9" d="M46.6,40.9v2.6H29.7v-2.6h6.8v-2.8c-3.2-0.5-5.4-2.4-5.4-5.2c0-3.2,3.1-5.3,7.1-5.3c4,0,7.1,2.1,7.1,5.3
		c0,2.8-2.3,4.7-5.4,5.2v2.8H46.6z M38.1,35.7c2.3,0,3.9-1,3.9-2.8c0-1.8-1.5-2.8-3.9-2.8c-2.3,0-3.9,1-3.9,2.8
		C34.3,34.7,35.8,35.7,38.1,35.7z"/>
	<linearGradient id="SVGID_11_" gradientUnits="userSpaceOnUse" x1="55.534" y1="7" x2="55.534" y2="52.6207">
		<stop  offset="0" style="stop-color:#2C214D"/>
		<stop  offset="0.2525" style="stop-color:#822140"/>
		<stop  offset="0.5525" style="stop-color:#AE2939"/>
		<stop  offset="1" style="stop-color:#FCCA29"/>
	</linearGradient>
	<path class="st10" d="M52.7,36c-2.9,0-5.1-1.8-5.1-4.4c0-2.5,2.2-4.3,5.1-4.3c2.9,0,5.1,1.8,5.1,4.3C57.8,34.1,55.6,36,52.7,36z
		 M63.4,42.9v2.5h-13v-5.5h9.4v-0.7h-9.4v-2.4H63v5.4h-9.4v0.7H63.4z M52.7,33.4c1.1,0,2-0.6,2-1.8s-0.8-1.8-2-1.8s-2,0.6-2,1.8
		S51.6,33.4,52.7,33.4z M63,36.1h-3.2v-9.3H63V36.1z"/>
	<linearGradient id="SVGID_12_" gradientUnits="userSpaceOnUse" x1="78.3233" y1="7" x2="78.3233" y2="52.6207">
		<stop  offset="0" style="stop-color:#2C214D"/>
		<stop  offset="0.2525" style="stop-color:#822140"/>
		<stop  offset="0.5525" style="stop-color:#AE2939"/>
		<stop  offset="1" style="stop-color:#FCCA29"/>
	</linearGradient>
	<path class="st11" d="M75.6,37.6c-2.9,0-5.2-2.1-5.2-4.8c0-2.8,2.3-4.8,5.2-4.8s5.2,2,5.2,4.8C80.8,35.5,78.5,37.6,75.6,37.6z
		 M86.2,42.7v2.5H73.2v-6.4h3.2v3.9H86.2z M75.6,34.8c1.1,0,2-0.7,2-2.1c0-1.4-0.9-2.1-2-2.1s-2,0.7-2,2.1
		C73.6,34.1,74.4,34.8,75.6,34.8z M85.8,40.2h-3.2V26.8h3.2V40.2z"/>
	<linearGradient id="SVGID_13_" gradientUnits="userSpaceOnUse" x1="100.8162" y1="7" x2="100.8162" y2="52.6207">
		<stop  offset="0" style="stop-color:#2C214D"/>
		<stop  offset="0.2525" style="stop-color:#822140"/>
		<stop  offset="0.5525" style="stop-color:#AE2939"/>
		<stop  offset="1" style="stop-color:#FCCA29"/>
	</linearGradient>
	<path class="st12" d="M99.2,31.1c0,3.1,0.5,6.2,3,7.9l-1.7,2.5c-1.4-0.9-2.3-2.3-2.9-3.9C97,39.5,96,41,94.5,42l-1.9-2.4
		c2.8-1.8,3.5-5.1,3.5-8.3v-2.9h3.1V31.1z M102.2,27h3v17.7h-3v-9.3h-1.9v-2.6h1.9V27z M109.1,26.8v18.8h-3V26.8H109.1z"/>
	<linearGradient id="SVGID_14_" gradientUnits="userSpaceOnUse" x1="118.8939" y1="7" x2="118.8939" y2="52.6207">
		<stop  offset="0" style="stop-color:#2C214D"/>
		<stop  offset="0.2525" style="stop-color:#822140"/>
		<stop  offset="0.5525" style="stop-color:#AE2939"/>
		<stop  offset="1" style="stop-color:#FCCA29"/>
	</linearGradient>
	<path class="st13" d="M121.3,37c-2.5,0.4-4.8,0.4-8.3,0.4h-1.6v-6.1h5.3v-1.1h-5.3v-2.5h8.5v6h-5.3v1.2c2.6,0,4.4-0.1,6.5-0.4
		L121.3,37z M113.8,38.5h12.7v6.8h-12.7V38.5z M116.9,42.9h6.4V41h-6.4V42.9z M126.4,26.8v11h-3.2V33h-2.6v-2.5h2.6v-3.7H126.4z"/>
</g>
<text transform="matrix(0.96 0 0 1 -170.9709 -14.3335)" style="font-family:'FuturaCom-Heavy'; font-size:20px;">NEW</text>
<text transform="matrix(0.99 0 0 1 -128.2707 -14.3335)" style="font-family:'NotoSansCJKkr-Black-KSCpc-EUC-H'; font-size:20px;"> 이모르뗄 리셋</text>
<text transform="matrix(0.99 0 0 1 -141.2653 9.6665)" style="font-family:'NotoSansCJKkr-Black-KSCpc-EUC-H'; font-size:20px;">오일 인 세럼</text>
<linearGradient id="SVGID_15_" gradientUnits="userSpaceOnUse" x1="-234.6667" y1="76" x2="-64.6667" y2="76">
	<stop  offset="0" style="stop-color:#2C214D"/>
	<stop  offset="0.2525" style="stop-color:#822140"/>
	<stop  offset="0.5525" style="stop-color:#AE2939"/>
	<stop  offset="1" style="stop-color:#FCCA29"/>
</linearGradient>
<rect x="-234.7" y="52" class="st14" width="170" height="48"/>
</svg>
