<?xml version="1.0" encoding="utf-8"?>
<!-- Generator: Adobe Illustrator 22.0.1, SVG Export Plug-In . SVG Version: 6.00 Build 0)  -->
<svg version="1.1" id="레이어_1" xmlns="http://www.w3.org/2000/svg" xmlns:xlink="http://www.w3.org/1999/xlink" x="0px"
	 y="0px" viewBox="0 0 428 198.3" style="enable-background:new 0 0 428 198.3;" xml:space="preserve">
<style type="text/css">
	.st0{fill:#FFFFFF;}
</style>
<g>
	<path class="st0" d="M30.8,7.7l-16.7,18l0.1,0.1c1.2-0.3,2.4-0.4,3.9-0.4c1.4,0,2.8,0.3,4.2,0.8c1.3,0.5,2.5,1.4,3.5,2.5
		c1,1.1,1.8,2.5,2.4,4.1c0.6,1.6,0.9,3.6,0.9,5.8c0,1.9-0.4,3.8-1.1,5.5c-0.7,1.8-1.8,3.3-3.1,4.6c-1.4,1.3-3.1,2.4-5.1,3.2
		c-2,0.8-4.3,1.2-6.9,1.2c-1.4,0-2.8-0.2-4.3-0.5c-1.5-0.3-2.8-0.9-4.1-1.6c-1.2-0.7-2.2-1.7-3-2.8c-0.8-1.2-1.2-2.5-1.2-4.2
		c0-1.1,0.3-2.1,0.8-2.9C1.7,40.4,2.6,40,3.8,40c1.3,0,2.2,0.4,2.7,1.3c0.4,0.9,0.7,1.9,0.7,3c0,0.4-0.1,0.8-0.2,1.2
		c-0.1,0.4-0.2,0.8-0.2,1.2c0,0.8,0.2,1.5,0.7,2c0.5,0.6,1.1,1,1.8,1.4c0.7,0.3,1.5,0.6,2.3,0.8c0.8,0.2,1.5,0.2,2.1,0.2
		c1.8,0,3.4-0.4,4.6-1.2c1.2-0.8,2.1-1.8,2.8-3.1c0.7-1.2,1.2-2.7,1.5-4.2c0.3-1.6,0.4-3.1,0.4-4.7c0-1.1-0.2-2.2-0.5-3.4
		c-0.3-1.2-0.8-2.3-1.4-3.2c-0.6-1-1.4-1.8-2.3-2.4c-0.9-0.6-2-1-3.3-1c-1.5,0-2.6,0.3-3.5,0.8c-0.9,0.5-1.8,1.3-2.9,2.4l-1.3-1
		l15.3-18.2H10.6c-0.9,0-1.6,0.2-2.2,0.6C7.9,12.9,7.4,13.4,7,14c-0.4,0.6-0.8,1.3-1.1,2c-0.3,0.7-0.6,1.4-1,2l-1-0.1L6.3,6.8
		C8.3,6.8,10.2,6.9,12,7C13.9,7,15.8,7,17.7,7c0.8,0,1.7,0,2.9,0c1.1,0,2.3,0,3.5,0c1.2,0,2.4-0.1,3.5-0.1c1.1,0,2.1-0.1,2.9-0.1
		L30.8,7.7z"/>
	<path class="st0" d="M34.5,59.5c0.5-0.3,1-0.8,1.5-1.3c0.5-0.5,1-1.1,1.4-1.7c0.4-0.6,0.8-1.3,1-1.9c0.3-0.7,0.4-1.3,0.4-1.9
		c0-0.6-0.1-1.2-0.2-1.7c-0.1-0.5-0.3-1-0.4-1.5c-0.1-0.5-0.3-0.9-0.4-1.3c-0.1-0.4-0.2-0.9-0.2-1.3c0-1,0.3-1.8,1-2.4
		c0.7-0.6,1.5-0.9,2.4-0.9c1.2,0,2.1,0.4,2.6,1.2c0.5,0.8,0.8,1.9,0.8,3.4c0,1.5-0.3,2.8-0.8,4c-0.5,1.2-1.2,2.3-2.1,3.2
		c-0.9,1-1.9,1.9-2.9,2.7c-1.1,0.8-2.2,1.6-3.3,2.3L34.5,59.5z"/>
	<path class="st0" d="M68.1,5.9c1.7,0,3.4,0.4,5.1,1.2c1.7,0.8,3.2,2.2,4.6,4.1c1.3,1.9,2.4,4.3,3.3,7.3c0.8,3,1.2,6.7,1.2,11
		c0,4.3-0.4,8-1.2,11c-0.8,3-1.9,5.4-3.3,7.3c-1.3,1.9-2.9,3.2-4.6,4.1c-1.7,0.8-3.4,1.2-5.1,1.2c-1.8,0-3.5-0.4-5.2-1.2
		c-1.7-0.8-3.2-2.2-4.5-4.1c-1.3-1.9-2.4-4.3-3.2-7.3c-0.8-3-1.2-6.7-1.2-11c0-4.3,0.4-8,1.2-11c0.8-3,1.9-5.4,3.2-7.3
		c1.3-1.9,2.8-3.2,4.5-4.1C64.6,6.3,66.3,5.9,68.1,5.9z M68.2,8c-1.4,0-2.6,0.5-3.6,1.5c-1,1-1.9,2.4-2.5,4.3
		c-0.7,1.9-1.2,4.1-1.5,6.8c-0.3,2.7-0.5,5.6-0.5,8.9s0.2,6.3,0.5,8.9c0.3,2.7,0.8,5,1.5,6.8c0.7,1.9,1.5,3.3,2.5,4.3
		c1,1,2.2,1.5,3.6,1.5c1.4,0,2.6-0.5,3.6-1.5c1-1,1.8-2.5,2.5-4.3c0.7-1.9,1.2-4.1,1.5-6.8c0.3-2.7,0.5-5.7,0.5-8.9
		s-0.2-6.3-0.5-8.9c-0.3-2.7-0.8-4.9-1.5-6.8c-0.7-1.9-1.5-3.3-2.5-4.3C70.7,8.5,69.6,8,68.2,8z"/>
	<path class="st0" d="M102.8,5.9c1.7,0,3.4,0.4,5.1,1.2c1.7,0.8,3.2,2.2,4.6,4.1c1.3,1.9,2.4,4.3,3.3,7.3c0.8,3,1.2,6.7,1.2,11
		c0,4.3-0.4,8-1.2,11c-0.8,3-1.9,5.4-3.3,7.3c-1.3,1.9-2.9,3.2-4.6,4.1c-1.7,0.8-3.4,1.2-5.1,1.2c-1.8,0-3.5-0.4-5.2-1.2
		c-1.7-0.8-3.2-2.2-4.5-4.1c-1.3-1.9-2.4-4.3-3.2-7.3c-0.8-3-1.2-6.7-1.2-11c0-4.3,0.4-8,1.2-11c0.8-3,1.9-5.4,3.2-7.3
		c1.3-1.9,2.8-3.2,4.5-4.1C99.3,6.3,101,5.9,102.8,5.9z M102.8,8c-1.4,0-2.6,0.5-3.6,1.5c-1,1-1.9,2.4-2.5,4.3
		c-0.7,1.9-1.2,4.1-1.5,6.8c-0.3,2.7-0.5,5.6-0.5,8.9s0.2,6.3,0.5,8.9c0.3,2.7,0.8,5,1.5,6.8c0.7,1.9,1.5,3.3,2.5,4.3
		c1,1,2.2,1.5,3.6,1.5c1.4,0,2.6-0.5,3.6-1.5c1-1,1.8-2.5,2.5-4.3c0.7-1.9,1.2-4.1,1.5-6.8c0.3-2.7,0.5-5.7,0.5-8.9
		s-0.2-6.3-0.5-8.9c-0.3-2.7-0.8-4.9-1.5-6.8c-0.7-1.9-1.5-3.3-2.5-4.3C105.4,8.5,104.2,8,102.8,8z"/>
	<path class="st0" d="M137.4,5.9c1.7,0,3.4,0.4,5.1,1.2c1.7,0.8,3.2,2.2,4.6,4.1c1.3,1.9,2.4,4.3,3.3,7.3c0.8,3,1.2,6.7,1.2,11
		c0,4.3-0.4,8-1.2,11c-0.8,3-1.9,5.4-3.3,7.3c-1.3,1.9-2.9,3.2-4.6,4.1c-1.7,0.8-3.4,1.2-5.1,1.2c-1.8,0-3.5-0.4-5.2-1.2
		c-1.7-0.8-3.2-2.2-4.5-4.1c-1.3-1.9-2.4-4.3-3.2-7.3c-0.8-3-1.2-6.7-1.2-11c0-4.3,0.4-8,1.2-11c0.8-3,1.9-5.4,3.2-7.3
		c1.3-1.9,2.8-3.2,4.5-4.1C133.9,6.3,135.7,5.9,137.4,5.9z M137.5,8c-1.4,0-2.6,0.5-3.6,1.5c-1,1-1.9,2.4-2.5,4.3
		c-0.7,1.9-1.2,4.1-1.5,6.8c-0.3,2.7-0.5,5.6-0.5,8.9s0.2,6.3,0.5,8.9c0.3,2.7,0.8,5,1.5,6.8c0.7,1.9,1.5,3.3,2.5,4.3
		c1,1,2.2,1.5,3.6,1.5c1.4,0,2.6-0.5,3.6-1.5c1-1,1.8-2.5,2.5-4.3c0.7-1.9,1.2-4.1,1.5-6.8c0.3-2.7,0.5-5.7,0.5-8.9
		s-0.2-6.3-0.5-8.9c-0.3-2.7-0.8-4.9-1.5-6.8c-0.7-1.9-1.5-3.3-2.5-4.3C140.1,8.5,138.9,8,137.5,8z"/>
	<path class="st0" d="M182.3,14.4h3.1V6.2c0-2.1,0-4.1-0.1-5.7c4.9,0.9,7.4,1.8,7.4,2.6c0,0.5-0.8,1.2-2.5,2.1v9.3h2.9l1.4-1.9
		c0.2-0.3,0.4-0.5,0.7-0.5c0.2,0,1.1,0.5,2.7,1.6c1.6,1.1,2.4,1.9,2.4,2.3c0,0.4-0.7,1-2,1.7v6.6c0.8,0.1,1.7,0.2,2.6,0.2h5.2V14.4
		h-3c-1.1,0-2,0.1-2.8,0.3l-1-2.6c0.9,0.2,2,0.3,3.2,0.3h3.7v-6c0-2.2,0-4.1-0.1-5.8c2.7,0.4,4.6,0.8,5.8,1.2
		c1.2,0.3,1.8,0.7,1.8,1.2s-0.8,1-2.3,1.6v7.9h5.4V6.1c0-2.2,0-4.1-0.1-5.8c1.8,0.3,3.4,0.7,4.9,1.1c1.5,0.4,2.4,0.7,2.7,0.9
		c0.3,0.2,0.5,0.4,0.5,0.6c0,0.6-0.8,1-2.5,1.4v8.1h2l2.3-3.4c0.3-0.5,0.7-0.7,1.2-0.7c0.5,0,1.6,0.8,3.3,2.5
		c1.7,1.7,2.6,2.7,2.6,3.1c0,0.4-0.4,0.6-1.3,0.6h-10.1v10.1h3l2.5-3.5c0.3-0.4,0.5-0.6,0.8-0.6c0.6,0,1.8,0.8,3.5,2.3
		c1.7,1.6,2.6,2.6,2.6,3.2c0,0.3-0.4,0.5-1.2,0.5h-31.8c-0.8,0-1.7,0.1-2.8,0.3l-0.5-1.2v4.8l0.1,5c0,0.5-0.1,0.9-0.2,1.1
		c-0.1,0.2-0.8,0.5-2,0.9c-1.2,0.4-2,0.6-2.3,0.6c-0.3,0-0.5-0.3-0.5-0.8v-3.5h-3.3v13.8l5-0.9c-0.3-1.7-1.2-3.9-2.6-6.5l0.8-0.7
		c4.9,4.5,7.4,8.4,7.4,11.8c0,1.4-0.4,2.5-1.2,3.4c-0.8,0.8-1.7,1.3-2.7,1.3c-0.6,0-0.9-0.2-1-0.5c-0.1-0.3-0.2-1.2-0.2-2.7
		c0-1.5-0.1-2.8-0.2-3.8l-10.9,3.7c-2.9,0.9-5.2,2-7.1,3c-0.3,0.2-0.5,0.3-0.7,0.3c-0.2,0-0.4-0.1-0.5-0.3c-0.1-0.2-0.4-0.8-0.8-1.8
		c-0.4-1-0.9-2.3-1.4-3.8c2.7-0.2,6.4-0.7,11.2-1.5V33.7h-3.3v4c0,0.5-0.1,0.8-0.3,1c-0.2,0.2-0.9,0.4-2.1,0.8
		c-1.2,0.4-2,0.5-2.3,0.5c-0.2,0-0.3-0.3-0.3-0.8c0.2-1.7,0.3-3.5,0.3-5.5V16.8c0-1.1,0-2.7-0.1-4.9C179,12.7,180.7,13.5,182.3,14.4
		z M185.3,16.4h-3.3v15.5h3.3V16.4z M193.4,31.9V16.4h-3.3v15.5H193.4z M208.6,33h11.5l1.6-2.3c0.3-0.4,0.5-0.6,0.8-0.6
		c0.3,0,1.1,0.4,2.5,1.2c1.4,0.8,2.4,1.4,3,1.8c0.6,0.4,0.9,0.8,0.9,1.2c0,0.4-0.9,0.9-2.6,1.6v15.4c0,1.5,0,2.9,0.1,3.9l0.1,2.6
		c0,0.3-0.1,0.5-0.4,0.6c-0.3,0.2-1,0.4-2.2,0.6c-1.2,0.3-2.1,0.4-2.7,0.4c-0.4,0-0.6-0.2-0.6-0.7v-4.6h-12.2v3.3
		c0,0.5-0.1,0.9-0.3,1.1c-0.2,0.2-1,0.5-2.3,0.9c-1.3,0.4-2.1,0.6-2.5,0.6c-0.4,0-0.5-0.2-0.5-0.6c0.2-1.4,0.3-3.5,0.3-6.4V36.4
		c0-1.8-0.1-3.6-0.2-5.5C205,31.6,207,32.4,208.6,33z M220.6,42.2v-7.1h-12.2v7.1H220.6z M220.6,52.3v-8h-12.2v8H220.6z M216.7,24.5
		V14.4h-5.4v10.1H216.7z"/>
	<path class="st0" d="M279.4,10.6h9.1l2.8-4c0.3-0.4,0.6-0.6,0.8-0.6c0.4,0,1.5,0.9,3.5,2.8c1.9,1.9,2.9,3,2.9,3.3
		c0,0.3-0.4,0.5-1.2,0.5h-17.8l0.1,5.2c0,0.5-0.1,0.8-0.2,1c-0.1,0.2-0.4,0.4-1,0.6c-0.5,0.2-1.3,0.5-2.2,0.7
		c-0.9,0.2-1.5,0.3-1.8,0.3c-0.3,0-0.4-0.3-0.4-1v-6.8h-11.8v4.8c0,0.4-0.1,0.8-0.3,1c-0.2,0.2-0.7,0.5-1.4,0.7
		c-0.8,0.3-1.6,0.5-2.6,0.6c0.8,0.6,1.2,1,1.2,1.2c0,0.2-0.3,0.4-0.8,0.4c-0.5,0-1.2,0.4-2,1.2h29.8l1.4-2.3c0.3-0.5,0.6-0.7,1-0.7
		c0.3,0,1.2,0.5,2.7,1.6l2.9,2.1c0.5,0.3,0.7,0.6,0.7,1c0,0.3-0.9,1-2.8,1.9c0,3.6-0.1,8.4-0.4,14.5c-0.3,6.1-0.7,10.1-1,11.8
		c-0.3,1.8-1,3.2-1.8,4.2c-0.9,1-2.3,2-4.2,2.8c-1.9,0.9-3.1,1.3-3.6,1.3c-0.5,0-0.8-0.3-0.8-1c-0.1-1.8-0.9-3.1-2.3-4
		c-1.4-0.9-3.2-1.6-5.5-2.3l0.3-1.2c3.6,0.8,6.3,1.2,7.8,1.2c1.6,0,2.7-0.2,3.4-0.7c0.7-0.5,1.2-1.2,1.4-2.2c0.3-1,0.5-3.8,0.8-8.3
		c0.2-4.5,0.4-10.4,0.5-17.7h-31.8c-0.5,0.7-1.3,1.7-2.3,3c2.3,0.9,3.8,1.8,4.6,2.5c0.8,0.7,1.2,1.6,1.2,2.5c0,0.9-0.3,1.8-1,2.5
		c-0.6,0.8-1.3,1.2-1.8,1.2c-0.6,0-1-0.1-1.1-0.3c-0.2-0.2-0.3-0.8-0.5-1.7c-0.5-2.4-1.2-4.2-2.3-5.5c-2.8,3.1-6.5,6.4-11.1,9.8
		l-0.8-0.8c6-6.4,10.6-13.1,13.6-20.1c1.2,0.5,2.4,1.1,3.7,1.7c0.1-1.8,0.2-4,0.2-6.6h-12.4c-1.1,0-2,0.1-2.7,0.4l-1.5-2.7
		c0.9,0.2,2,0.3,3.2,0.3h13.4V6c0-1.4-0.1-3-0.2-4.7c2.5,0.6,4.4,1.1,5.6,1.5c1.2,0.4,1.8,0.8,1.8,1c0,0.3-0.7,0.7-2,1.4v5.4H274V6
		c0-1.4-0.1-3-0.2-4.7c3.4,0.9,5.5,1.4,6.4,1.7c0.9,0.3,1.3,0.5,1.3,0.7c0,0.3-0.7,0.8-2.1,1.6V10.6z M259.1,39h-10.8
		c-1.1,0-2,0.1-2.8,0.3l-1.1-2.6c0.9,0.2,2,0.3,3.2,0.3h14v-5.1c0-3.7,0-6.1-0.1-7.3c1.8,0.2,3.2,0.5,4.4,0.7
		c1.2,0.3,1.9,0.5,2.2,0.6c0.2,0.1,0.4,0.2,0.4,0.4c0,0.3-0.6,0.8-1.9,1.5V37h9.8l2-2.7c0.3-0.4,0.5-0.6,0.7-0.6
		c0.3,0,1.3,0.7,2.7,2c1.5,1.4,2.2,2.2,2.2,2.6c0,0.4-0.4,0.6-1.2,0.6h-16.3v1.8c4.5,1,7.6,1.9,9.5,2.5c1.8,0.6,3.1,1.3,3.6,2.1
		c0.6,0.7,0.9,1.6,0.9,2.7c0,1-0.2,1.8-0.5,2.4c-0.3,0.6-0.7,0.9-1.2,0.9c-0.5,0-0.8-0.1-1-0.2c-0.2-0.2-0.5-0.5-0.8-0.9
		c-2.1-3-5.6-5.7-10.5-8.2v8.9l0.1,7.3c0,0.5-0.1,0.8-0.3,1c-0.2,0.2-0.9,0.5-2.2,0.9c-1.3,0.5-2,0.7-2.3,0.7
		c-0.3,0-0.5-0.2-0.5-0.6l0.1-3.6c0-1.5,0.1-3.2,0.1-5v-8.3c-4.1,5.1-10.6,10-19.4,14.5l-0.7-1c4.7-3.3,8.4-6.3,10.9-8.9
		C255.1,45.1,257.3,42.2,259.1,39z M276,26c1.3,0.9,2.4,1.8,3.1,2.6c0.7,0.8,1.1,1.3,1.1,1.5c0,0.3-0.3,0.4-0.9,0.4
		c-0.6,0-1.5,0.4-2.6,1.1c-1.2,0.8-3.3,2.3-6.3,4.7l-0.7-0.7C272.5,32.2,274.6,29,276,26z"/>
	<path class="st0" d="M313.2,30.2c-2.5,2.8-5.7,6-9.7,9.6l-0.9-1c6.7-8.9,11.8-17.3,15.2-25c3.5,2,5.3,3.2,5.3,3.5
		c0,0.2-0.4,0.4-1.1,0.6c-0.4,0.1-1,0.9-1.8,2.3c-0.8,1.4-1.7,2.9-2.7,4.5c0.1,0,0.5,0.2,1.1,0.3c0.6,0.2,0.9,0.4,0.9,0.6
		c0,0.3-0.5,0.7-1.5,1.3v24.4l0.1,6.6c0,0.4-0.2,0.8-0.5,1.1c-0.3,0.3-1,0.6-2.1,1.1c-1.1,0.4-1.7,0.7-2,0.7c-0.3,0-0.4-0.2-0.4-0.6
		V30.2z M317.7,2.2c3.4,2.7,5.1,4.2,5.1,4.6c0,0.2-0.1,0.3-0.4,0.3c-0.3,0-0.6,0-0.9,0c-0.4,0-1,0.4-1.8,1.3c-2.7,2.6-5,4.6-6.9,6
		c-1.9,1.5-4.5,3.1-7.6,4.9l-0.8-1c3.2-3.1,5.7-5.7,7.6-7.9C313.7,8.3,315.6,5.6,317.7,2.2z M328.8,34.5h4.8l1.5-1.9
		c0.1-0.1,0.3-0.2,0.5-0.2c0.3,0,1.1,0.4,2.4,1.3c1.3,0.9,1.9,1.4,1.9,1.6c0,0.3-0.7,0.8-2,1.5v10.1l6.9-5l0.8,1
		c-4.5,4.3-7.2,6.9-8.1,7.8c-0.9,0.9-1.4,1.5-1.7,2c-0.2,0.5-0.4,0.7-0.6,0.7c-0.2,0-0.8-0.5-1.7-1.5c-0.9-1-1.5-1.8-1.8-2.3
		c1.2-0.9,1.8-1.8,1.8-2.8V36.1h-4.7c-0.1,4.2-0.4,7.6-0.9,10.3c-0.5,2.7-1,4.6-1.6,5.8c-0.6,1.2-1.4,2.3-2.4,3.5
		c-1.1,1.2-2.6,2.5-4.5,4.1l-0.6-0.8c1.5-2.1,2.6-3.7,3-4.6c0.5-0.9,0.9-2.4,1.4-4.5c0.5-2.1,0.7-4.6,0.9-7.4
		c0.1-2.8,0.2-6.1,0.1-9.9C326,33.1,327.6,33.8,328.8,34.5z M349.7,18.2h6.3l2.2-3c0.4-0.6,0.8-0.9,1.1-0.9c0.3,0,1.3,0.8,3,2.5
		c1.7,1.7,2.5,2.6,2.5,2.9c0,0.3-0.4,0.4-1.1,0.4h-8.4c3.4,1.2,5.1,2,5.1,2.4c0,0.2-0.2,0.4-0.7,0.7c-0.5,0.3-0.8,0.6-1,1
		c-0.2,0.4-0.3,1.1-0.5,2c-1.2,8.2-2.9,14.5-5.3,19c2.8,4.2,6.9,7.9,12.2,11.2v1c-1.7,0-3.1,0-4.1,0.3c-1,0.2-1.8,0.6-2.5,1.1
		c-0.7,0.5-1.1,0.7-1.3,0.7c-0.1,0-0.4-0.2-0.8-0.5c-0.4-0.4-1.3-1.5-2.7-3.5c-1.4-2-2.6-3.9-3.6-5.9c-3.3,4.5-9.4,8.5-18.1,11.9
		l-0.6-1c5.1-3.4,8.9-6.3,11.3-8.5c2.4-2.2,4.2-4.4,5.5-6.7c-1.5-4.2-2.5-10.4-3-18.7c-0.9,1.5-2.4,3.6-4.4,6.4l-0.8-0.7
		c0.6-1.2,1-2,1.3-2.6h-16.6c-1.1,0-2,0.1-2.8,0.3l-1.1-2.4c0.9,0.2,2,0.3,3.2,0.3h11.5l1.7-2.3c0.2-0.3,0.4-0.5,0.7-0.5
		c0.3,0,0.8,0.4,1.7,1.2c0.9,0.8,1.6,1.5,2.2,2.2c3-6.3,5.5-15.4,7.3-27.3c4.8,1.7,7.2,2.8,7.2,3.3c0,0.2-0.3,0.4-0.9,0.5
		c-0.6,0.1-1,0.3-1.2,0.5c-0.2,0.2-0.7,1.8-1.6,4.6C351.8,13.2,350.8,15.8,349.7,18.2z M331,20.4V6.8c0-3.2,0-5.1-0.1-5.7
		c1.6,0.2,3.1,0.4,4.5,0.8c1.4,0.4,2.1,0.7,2.1,1c0,0.3-0.7,0.8-2.1,1.5v16h3.5v-8.2c0-1.6,0-2.8-0.1-3.4c0.9,0,2.2,0.3,3.6,0.6
		c1.5,0.4,2.2,0.7,2.2,1c0,0.3-0.5,0.7-1.5,1.3v7l0.1,2.8c0,0.4-0.1,0.8-0.4,1c-0.3,0.3-0.8,0.5-1.7,0.8c-0.8,0.3-1.4,0.5-1.8,0.5
		c-0.3,0-0.5-0.2-0.5-0.6v-1.2h-11.5l-1.2,1.4c-0.3,0.3-0.5,0.5-0.7,0.5c-0.3,0-1.5-0.7-3.6-2.2c0.6-0.6,1-1.1,1.1-1.4
		c0.1-0.3,0.2-0.9,0.2-1.8v-6.8c0-0.9,0-2.2-0.1-3.7c3.7,0.9,5.6,1.4,5.6,1.7c0,0.3-0.5,0.8-1.4,1.4v9.1H331z M353.8,20.1h-5
		c-0.6,1.4-1.4,2.9-2.3,4.5c1.2,8.3,2.5,13.7,3.9,16.3C352,36.5,353.1,29.6,353.8,20.1z"/>
	<path class="st0" d="M404.7,22.7h6l1-1.3c0.2-0.3,0.4-0.5,0.6-0.5c0.2,0,0.9,0.4,2.3,1.2c1.3,0.8,2,1.3,2,1.5
		c0,0.2-0.5,0.6-1.4,1.1v1.7c0,0.7,0,1.2,0.1,1.4c0,0.3,0.1,0.5,0.1,0.6c0,0.3-0.6,0.7-1.7,1.2c-1.1,0.4-1.8,0.6-2,0.6
		c-0.2,0-0.4-0.1-0.4-0.4v-1.3h-6.8v0.3c0,0.4-0.3,0.7-0.8,0.9c3.6,0.6,5.4,1.1,5.4,1.5c0,0.3-0.5,0.6-1.4,1.1v0.4h9l1.7-2.4
		c0.3-0.4,0.6-0.6,0.9-0.6c0.3,0,1.2,0.6,2.8,1.9c1.6,1.3,2.4,2.1,2.4,2.3c0,0.3-0.4,0.4-1.1,0.4h-15.7v2.9h5.5l1.5-1.9
		c0.3-0.5,0.6-0.7,0.9-0.7c0.2,0,1,0.6,2.4,1.7c1.4,1.1,2.1,1.8,2.1,2.1s-0.4,0.4-1.1,0.4h-11.2v2.8h10.9l1.8-2.4
		c0.3-0.4,0.6-0.6,0.9-0.6c0.3,0,1.2,0.6,2.9,1.9c1.6,1.3,2.4,2,2.4,2.3c0,0.3-0.4,0.4-1.1,0.4h-26.4c2.2,2.9,4.8,5.1,8,6.4
		c3.1-2.4,5.4-4.3,6.9-5.8c3,2.2,4.5,3.6,4.5,4.3c0,0.2-0.1,0.3-0.4,0.3c-0.3,0-0.6,0-0.9-0.1c-0.3-0.1-0.6-0.1-0.9-0.1
		c-0.9,0-3.3,0.7-7.2,2.2c4.1,1.5,10.4,2.7,18.9,3.6v1.1c-3.9,0.1-6.4,1.1-7.5,3c-0.3,0.5-0.5,0.7-0.8,0.7c-0.6,0-2.9-0.8-6.8-2.3
		c-3.9-1.5-7.2-3.3-9.8-5.4c-2.6-2.1-4.6-4.8-5.9-8h-2.1c-0.8,0.7-1.8,1.5-3,2.3v8.4l8.1-3.9l0.6,0.8c-6.6,5.1-10.1,8-10.7,8.6
		c-0.6,0.6-1,0.9-1.1,0.9c-0.5,0-1.5-1.5-3.1-4.6c1.2-1,1.7-2.1,1.7-3.5v-3.5c-4.8,3.4-11,6.1-18.7,8.1l-0.3-1
		c7.4-2.5,13.9-6.7,19.6-12.7h-14.3c-1.1,0-2,0.2-2.7,0.5l-1-2.4c0.9,0.2,1.9,0.3,3.1,0.3h14.9v-2.8h-9c-1.1,0-2,0.2-2.7,0.4l-1-2.3
		c0.9,0.2,1.9,0.3,3.1,0.3h9.6v-2.9h-11.9c-1.1,0-2,0.2-2.7,0.5l-1-2.4c0.9,0.2,1.9,0.3,3.1,0.3h12.5c0-0.9,0-2.1-0.1-3.5
		c1.4,0.3,2.7,0.5,3.9,0.9c1.2,0.3,1.8,0.6,1.8,0.9c0,0.3-0.4,0.6-1.4,1v0.7h11.1c0-0.7,0-1.7-0.1-2.9c-0.8,0.2-1.6,0.3-2.4,0.3
		c-0.3,0-0.5-0.2-0.5-0.7c0-0.5,0.1-1.3,0.1-2.7v-2.6c0-1.5,0-2.6-0.1-3.4C402.8,21.7,404.2,22.3,404.7,22.7z M395.4,7.1h-19.7
		c-1.1,0-2,0.2-2.7,0.5l-1-2.3c0.9,0.2,1.9,0.3,3.1,0.3h20.4c0-2,0-3.7-0.1-5.2c1.1,0.2,2.4,0.5,3.8,0.9c1.4,0.4,2.3,0.7,2.7,0.9
		c0.4,0.2,0.6,0.4,0.6,0.7c0,0.3-0.7,0.8-2.2,1.6v1.2h16l2.4-3.3c0.3-0.5,0.6-0.7,0.9-0.7c0.3,0,1.5,0.8,3.5,2.3
		c2,1.6,3.1,2.5,3.1,2.8c0,0.3-0.4,0.4-1.1,0.4h-24.8v2.6h10l0.9-1.3c0.2-0.2,0.3-0.3,0.5-0.3s0.8,0.2,2,0.7c1.2,0.5,2,0.8,2.5,1.1
		c0.5,0.3,0.7,0.6,0.7,0.8c0,0.3-0.6,0.7-1.7,1.3v1.3l0.1,2.2c0,0.5-0.6,0.9-1.8,1.3c-1.2,0.4-1.9,0.5-2.3,0.5
		c-0.3,0-0.5-0.1-0.5-0.4v-0.8h-10.4v2.5h19.1l1.7-1.7c0.4-0.5,0.8-0.7,1.1-0.7c0.3,0,1,0.3,2,1l2.6,1.9c0.7,0.5,1.1,1,1.1,1.4
		c0,0.5-0.6,0.7-1.7,0.8c-1.2,0.1-2.2,0.3-3.1,0.8c-0.9,0.5-2.4,1.7-4.5,3.8l-1-0.5c0.9-1.9,1.5-3.7,2-5.2h-42
		c-0.1,2.4-0.9,4.4-2.2,5.9c-1.3,1.5-2.5,2.3-3.6,2.3c-1.1,0-1.8-0.2-2.3-0.6c-0.5-0.4-0.7-0.9-0.7-1.4c0-0.9,0.7-1.8,2.1-2.7
		c1.4-0.9,2.4-2,3.2-3.2c0.7-1.2,1.4-3.2,2.2-6h1c0.2,1.5,0.4,2.9,0.5,4.2h17.8v-2.5h-9.9c0,0.3-0.2,0.4-0.5,0.6
		c-0.3,0.1-0.8,0.3-1.5,0.5c-0.7,0.2-1.3,0.4-1.7,0.4c-0.4,0-0.6-0.2-0.6-0.5l0.1-1.3c0-0.4,0.1-0.8,0.1-1.3v-3c0-1.9,0-3.2-0.1-3.7
		c1.7,0.5,3.4,1.1,5,1.9h9V7.1z M385,22.2h5.7l1-0.9c0.2-0.3,0.4-0.4,0.7-0.4c0.2,0,0.9,0.3,1.9,0.8c1.1,0.5,1.7,0.9,2.1,1.1
		c0.3,0.2,0.5,0.4,0.5,0.6c0,0.2-0.5,0.5-1.4,1.1v1.7l0.1,1.8c0,0.3-0.1,0.5-0.4,0.6c-0.3,0.2-0.7,0.4-1.4,0.6
		c-0.7,0.2-1.2,0.4-1.6,0.4c-0.4,0-0.6-0.1-0.6-0.3v-0.8h-6.8v0.4c0,0.3-0.1,0.5-0.4,0.7c-0.3,0.2-0.7,0.4-1.4,0.6
		c-0.6,0.2-1.2,0.3-1.7,0.3c-0.2,0-0.3-0.1-0.3-0.4l0.1-3.3V24c0-1.5,0-2.7-0.1-3.5C382.3,20.9,383.6,21.5,385,22.2z M391.5,27v-3.3
		h-6.8V27H391.5z M395.4,14.6V11h-9.9v3.6H395.4z M403.5,34.4h-11.1v2.9h11.1V34.4z M392.4,38.8v2.8h11.1v-2.8H392.4z M400.3,11v3.6
		h10.4V11H400.3z M411.3,27.1v-3h-6.8v3H411.3z"/>
	<path class="st0" d="M9.3,87.8h5l1.3-2.1c0.2-0.3,0.4-0.5,0.8-0.5c0.4,0,1,0.3,1.9,0.9c0.9,0.6,1.7,1.1,2.4,1.5
		c0.7,0.4,1,0.8,1,1.1c0,0.3-0.7,0.9-2.1,1.7v22.8l0.1,5.7c0,0.5-0.1,0.8-0.3,1c-0.2,0.2-0.9,0.6-2.2,1c-1.2,0.5-2.1,0.7-2.5,0.7
		c-0.3,0-0.4-0.3-0.4-0.8v-5.7H8.9v7.7c0,0.5-0.2,0.8-0.5,1.1c-0.3,0.3-1,0.6-2.1,1.1c-1.1,0.5-1.7,0.7-2,0.7
		c-0.3,0-0.4-0.1-0.4-0.4c0-0.2,0-0.9,0.1-2c0.1-1.1,0.1-2.6,0.1-4.6V90.7c0-2.5,0-4.3-0.1-5.5C5.4,85.8,7.1,86.7,9.3,87.8z
		 M14.4,113.5V89.7H8.9v23.8H14.4z M25.4,97.9c-1.3,1.1-2.6,2.2-3.9,3.3l-1-0.8c6.2-7.2,10.7-14.7,13.5-22.3c4.7,1.7,7,2.9,7,3.5
		c0,0.3-0.4,0.5-1.3,0.5c-0.8,0-1.5,0.5-2,1.3c-0.5,0.8-1.6,2.3-3.2,4.5H44l2.2-2.1c0.3-0.3,0.6-0.5,0.8-0.5c0.3,0,1.2,0.7,2.9,2
		c1.7,1.3,2.5,2.3,2.5,2.9c0,0.6-0.5,1-1.5,1c-1,0-1.9,0.3-2.5,0.7c-0.6,0.4-3.3,2.7-7.8,6.9h7.3l1.7-2.1c0.3-0.3,0.5-0.5,0.8-0.5
		c0.3,0,0.9,0.3,1.9,1l2.5,1.6c0.6,0.4,1,0.8,1,1.2c0,0.4-0.8,0.9-2.3,1.5v13.4h0.7l1.7-2.8c0.4-0.6,0.8-0.9,1.1-0.9
		c0.4,0,1.2,0.7,2.5,2.1c1.3,1.4,1.9,2.3,1.9,2.8c0,0.5-0.5,0.7-1.5,0.7H42.9c1.7,4.2,3.9,7.4,6.8,9.7c2.9,2.3,6.8,4.3,11.9,5.8v1.2
		c-2.1-0.1-3.8,0-5,0.3c-1.2,0.3-2.1,1-2.8,2c-0.2,0.3-0.4,0.5-0.7,0.5c-0.9,0-2.9-1.6-6.1-4.8c-3.2-3.2-5.2-8.1-5.9-14.7h-1.5
		c-1.2,5.2-3.7,9.4-7.4,12.5c-3.7,3.1-9.6,5.8-17.7,8.2l-0.3-1.3c6.1-2.8,10.7-5.7,13.8-8.7c3.1-3,5.3-6.6,6.6-10.7H23.4
		c-0.9,0-1.6,0.1-2,0.4l-0.7-2.6c0.6,0.2,1.4,0.3,2.3,0.3h2.4V97.9z M32.9,90c-2.2,2.7-4.5,5.1-6.8,7.3c1.9,0.6,3.3,1.2,4.2,1.7H38
		c2-3.6,3.9-6.5,5.5-8.9H32.9z M36.4,100.6h-6.2v14.4h5.1C36.1,111.5,36.5,106.7,36.4,100.6z M48.3,115.1v-14.4h-6.8
		c-0.2,6-0.7,10.8-1.4,14.4H48.3z"/>
	<path class="st0" d="M79.8,86.3h-6.1c-1.2,0-2.1,0.1-2.7,0.4l-1.2-2.6c0.9,0.2,2,0.3,3.2,0.3h18.2l2-3c0.4-0.6,0.8-0.8,1.2-0.8
		c0.4,0,1.4,0.8,3,2.3c1.5,1.5,2.3,2.5,2.3,2.8c0,0.3-0.4,0.5-1.2,0.5h-8.8v8.6h2.2l0.9-1.5c0.4-0.6,0.8-1,1.2-1
		c0.4,0,1.3,0.5,2.8,1.6c1.5,1.1,2.2,1.8,2.2,2.2c0,0.4-0.6,0.8-1.8,1.4v30.4c0,1.9,0,3.3,0.1,4l0.1,2.1c0,0.3-0.1,0.5-0.2,0.6
		c-0.1,0.1-0.4,0.3-0.9,0.6c-0.5,0.3-1.1,0.5-1.8,0.7c-0.7,0.2-1.2,0.3-1.5,0.3c-0.3,0-0.4-0.3-0.4-0.8v-4.8H77.2v4.1
		c0,0.5-0.2,0.8-0.5,1.1c-0.3,0.3-1,0.6-1.9,1c-1,0.4-1.7,0.6-2.1,0.6c-0.2,0-0.3-0.3-0.3-0.8c0.2-2,0.3-4.1,0.3-6.2V97.6
		c0-1.8-0.1-3.6-0.2-5.5c2,0.8,3.8,1.7,5.2,2.8h2.1V86.3z M92.5,114.8c-1.2,0.1-2.1,0.1-2.8,0.1c-1.6,0-2.6-0.3-3.1-0.8
		c-0.4-0.6-0.6-1.7-0.6-3.5V96.8h-2.3c0,6.9-0.6,11.7-1.5,14.3c-1,2.6-2.7,5-5,7.3v1.2h15.3V114.8z M77.2,116c1-1.5,1.7-3.4,2.1-5.5
		c0.4-2.1,0.5-6.7,0.5-13.7h-2.6V116z M92.5,129.1v-7.6H77.2v7.6H92.5z M86,86.3h-2.3v8.6H86V86.3z M89.8,96.8V110
		c0,0.6,0.1,0.9,0.3,1.1c0.2,0.2,0.5,0.3,1,0.3c0.4,0,0.9,0,1.5-0.1V96.8H89.8z M115.2,120.3h3.5l1.8-2.4c0.4-0.6,0.8-0.9,1.3-0.9
		c0.4,0,1.4,0.7,3,2.2c1.6,1.5,2.4,2.4,2.4,2.7c0,0.4-0.5,0.5-1.6,0.5h-10.4v9h5.3l2.1-2.9c0.5-0.7,1-1.1,1.4-1.1
		c0.5,0,1.1,0.4,2.1,1.2c0.9,0.8,1.8,1.6,2.6,2.3c0.8,0.7,1.2,1.3,1.2,1.8c0,0.5-0.5,0.7-1.4,0.7h-26.7c-1.2,0-2.1,0.1-2.7,0.4
		l-1.3-2.8c0.9,0.2,2,0.3,3.2,0.3h8.9v-9h-5c-1.2,0-2.1,0.2-2.7,0.5l-1.3-2.9c0.9,0.2,2,0.3,3.2,0.3h5.8v-8.2h-5.5
		c-1.5,2.8-3.4,5.6-5.8,8.4l-0.9-0.6c2.1-4.3,3.6-9.4,4.7-15.4c0.5,0,1.6,0.3,3.2,0.9c1.6,0.6,2.4,1,2.4,1.3c0,0.3-0.3,0.6-0.8,0.8
		c-0.3,0.1-0.9,1.1-1.8,2.8h4.4c0-3.7-0.1-6.3-0.3-7.9c2.5,0.4,4.3,0.8,5.6,1.2c1.2,0.4,1.8,0.7,1.8,1c0,0.3-0.6,0.8-1.9,1.4v4.3
		h4.6l1.5-2.3c0.6-0.9,1.1-1.3,1.5-1.3c0.4,0,1.5,0.7,3.3,2.1c1.8,1.4,2.7,2.3,2.7,2.7c0,0.4-0.5,0.6-1.5,0.6h-12.2V120.3z
		 M107.5,82.1h10.6l1.5-2.2c0.5-0.7,0.9-1,1.3-1c0.4,0,1.5,0.6,3.5,1.9c2,1.2,2.9,2.1,2.9,2.5c0,0.4-0.8,1-2.4,1.8v10.2
		c0,1.2,0,2.5,0.1,3.8l0.1,1.9c0,0.3,0,0.6-0.1,0.7c-0.1,0.1-0.5,0.4-1.1,0.7c-0.6,0.3-1.4,0.7-2.3,0.9c-0.9,0.3-1.5,0.4-1.8,0.4
		c-0.3,0-0.5-0.2-0.5-0.5v-2.3h-12.9c0,0.9-0.1,1.4-0.2,1.6c-0.2,0.2-0.8,0.5-1.8,0.8c-1.1,0.3-2,0.5-2.8,0.5
		c-0.3,0-0.4-0.2-0.3-0.6c0.2-2.1,0.3-4.2,0.3-6.2V85.1c0-2.1-0.1-3.9-0.3-5.5C103.6,80.2,105.7,81,107.5,82.1z M119.2,90.3v-6.2
		h-12.9v6.2H119.2z M119.2,98.9v-6.6h-12.9v6.6H119.2z"/>
	<path class="st0" d="M149.2,83.7h6.9l1.5-2.7c0.2-0.5,0.5-0.7,0.9-0.7c0.4,0,1.1,0.4,2.3,1.3l2.8,1.9c0.7,0.4,1,0.8,1,1.1
		c0,0.3-0.8,1-2.3,2v40.9c0,1.9-0.2,3.2-0.5,4c-0.4,0.8-1.4,1.6-3,2.5c-1.6,0.9-2.6,1.4-3.1,1.4c-0.5,0-0.7-0.2-0.8-0.7
		c-0.3-1.5-1.1-2.7-2.2-3.5c-1.1-0.9-2.6-1.5-4.4-2v-1.5c3.5,0.6,5.7,0.8,6.6,0.8c0.9,0,1.5-0.1,1.7-0.3c0.2-0.2,0.3-0.6,0.3-1.1
		V111h-7.8c-0.1,6-0.8,10.7-2.3,14.2c-1.4,3.5-4.1,7.5-8,11.9l-1.1-0.8c2-3.2,3.5-6.5,4.6-9.8c1.1-3.3,1.7-9.6,1.7-18.9
		c0-9.2-0.3-18.1-0.8-26.7C145.7,81.9,147.7,82.8,149.2,83.7z M149.3,96.6h7.7V85.7h-7.8C149.2,90.3,149.3,93.9,149.3,96.6z
		 M157,98.7h-7.7c0,2.3,0,5.7-0.1,10.2h7.8V98.7z M174.7,86.2c0.1,16.2,0,26.3-0.3,30.5c-0.3,4.2-1.4,7.6-3.2,10.4
		c-1.8,2.8-5.3,6.1-10.5,10l-1-1.2c2.7-2.8,4.8-5.3,6.2-7.5c1.4-2.2,2.4-4.7,2.9-7.6c0.5-2.9,0.8-7.1,0.8-12.8
		c0-7.5-0.2-16.3-0.6-26.4c2,0.7,3.8,1.5,5.6,2.6h6.8l1.8-2.8c0.3-0.4,0.5-0.6,0.8-0.6c0.3,0,0.8,0.3,1.7,0.9
		c0.9,0.6,1.7,1.2,2.5,1.7c0.8,0.6,1.4,1.1,1.8,1.4c0.4,0.4,0.6,0.7,0.6,0.9c0,0.5-1,1.2-3,1.9v40.4c0,0.6,0.1,0.9,0.4,1
		c0.3,0.1,1.1,0.2,2.3,0.2c0.9,0,1.5-0.2,1.8-0.7c0.4-0.5,0.7-1.7,1-3.6c0.3-1.9,0.7-5.2,1.1-10h1.5c-0.2,4.4,0,7.5,0.4,9.2
		c0.5,1.8,1.3,3.2,2.4,4.1c0.3,0.2,0.4,0.5,0.4,0.7c0,0.3-0.4,1-1.1,2.2c-0.7,1.2-1.5,2-2.3,2.3c-0.8,0.3-2.5,0.5-5.1,0.5
		c-2.6,0-4.5-0.1-5.7-0.3c-1.2-0.2-1.9-0.5-2.3-1c-0.4-0.5-0.6-1.3-0.6-2.3V86.2H174.7z"/>
	<path class="st0" d="M238.7,86.6c-1.3-3-3.2-5.5-5.5-7.6l0.5-1.2c2.8,0.4,5.2,1,7.1,1.7c1.9,0.7,2.9,1.7,2.9,2.9
		c0,0.7-0.2,1.5-0.7,2.3c-0.4,0.8-1.1,1.4-1.9,1.9h12.4l2.8-3.8c0.3-0.5,0.7-0.7,1.2-0.7c0.5,0,1,0.2,1.6,0.6c0.6,0.4,1.4,1.1,2.3,2
		c1,0.9,1.7,1.6,2.1,2.1c0.4,0.5,0.7,0.9,0.7,1.2c0,0.3-0.5,0.5-1.4,0.5h-41.4c-0.3,9.8-0.6,17.3-1,22.5c-0.4,5.2-1.4,9.8-3,13.7
		c-1.6,3.9-4.6,8.3-8.9,13.1l-0.8-0.6c3.4-6.1,5.6-12,6.4-17.7c0.9-5.6,1.3-13.4,1.3-23.3c0-4.4-0.1-8.6-0.3-12.7
		c2.1,0.7,4.3,1.7,6.8,3H238.7z M241.2,110.4h-10.4v15.2c2.2-1.5,5.3-3.5,9.3-6l1,1c-7.4,7.7-11.5,12.3-12.4,13.9
		c-0.3,0.6-0.7,1-1,1c-0.6,0-2.1-1.7-4.3-5.1c1.5-1.7,2.2-3.3,2.2-5v-23.9c0-2.8-0.1-5.2-0.2-7.1c3.1,0.9,5.5,1.8,7.1,2.6
		c7.5-1.3,14.5-3.3,21-6c1.3,1.3,2.5,2.5,3.5,3.7c1,1.2,1.5,1.9,1.5,2.2c0,0.3-0.2,0.5-0.6,0.5c-0.4,0-0.8-0.1-1.4-0.3
		c-0.5-0.2-1.1-0.3-1.7-0.3c-0.6,0-1.9,0.1-3.7,0.3l-6.4,0.8c0.2,4.1,0.6,7.7,1.2,10.6h8.1l2.3-3.2c0.5-0.6,1-1,1.5-1
		c0.6,0,1.7,0.8,3.5,2.4c1.8,1.6,2.6,2.6,2.6,3.1c0,0.4-0.5,0.6-1.4,0.6h-16.3c0.9,3.5,2,6.4,3.4,8.8c1.4,2.4,3.1,4.5,5,6.1
		c2,1.7,3.2,2.5,3.6,2.5c0.4,0,0.8-0.3,1.2-0.8c0.3-0.5,0.9-1.9,1.6-4.2c0.7-2.3,1.4-4.3,1.9-6.1l1.4,0.2c-0.5,3.8-0.8,7.1-0.8,10
		c0,2.9,0.6,5.4,1.9,7.4c0.3,0.6,0.5,1,0.5,1.4c0,0.6-0.6,0.9-1.7,0.9c-2.2,0-5-1-8.4-3c-3.4-2-6.4-4.9-9-8.7
		C244.4,121.3,242.5,116.4,241.2,110.4z M230.8,108.5h10c-0.5-3-0.9-6.3-1.2-10c-3.7,0.4-6.6,0.7-8.8,0.7V108.5z M238,125.5
		c3,1,5.3,2.1,6.9,3.2c1.6,1.1,2.4,2.2,2.4,3.3c0,1.2-0.5,2.3-1.4,3.5c-0.9,1.2-1.8,1.8-2.5,1.8c-0.4,0-0.7-0.2-0.9-0.5
		c-0.2-0.3-0.4-1-0.7-2.1c-0.3-1.1-0.7-2.3-1.4-3.5c-0.6-1.2-1.7-2.8-3.2-4.6L238,125.5z"/>
	<path class="st0" d="M282.4,82.8l-1-3.4c-0.2-0.4-0.2-0.8-0.2-1.2c0-0.6,0.2-1.1,0.5-1.5c0.3-0.4,0.7-0.6,1.2-0.6
		c0.5,0,0.9,0.2,1.2,0.6c0.3,0.4,0.5,0.9,0.5,1.5c0,0.3-0.1,0.7-0.2,1.2l-0.9,3.4l0.9,0.7l2.9-2c0.8-0.5,1.4-0.8,2-0.8
		c0.5,0,0.9,0.2,1.3,0.5c0.3,0.3,0.5,0.8,0.5,1.3c0,0.5-0.3,1-0.8,1.3c-0.5,0.4-1.2,0.6-2,0.6h-3.6l-0.3,1.2l2.9,2.1
		c0.9,0.7,1.4,1.4,1.4,2.2c0,0.5-0.2,0.9-0.5,1.2c-0.3,0.3-0.7,0.5-1.2,0.5c-0.4,0-0.8-0.2-1.2-0.6c-0.4-0.4-0.8-0.9-1-1.5l-1.2-3.4
		h-1l-1.2,3.4c-0.5,1.4-1.2,2.1-2.2,2.1c-0.4,0-0.8-0.2-1.2-0.5c-0.4-0.3-0.5-0.7-0.5-1.2c0-0.8,0.5-1.5,1.4-2.3l2.8-2.1l-0.3-1.2
		h-3.6c-0.9,0-1.5-0.2-2-0.5c-0.5-0.4-0.8-0.8-0.8-1.3c0-0.5,0.2-1,0.5-1.3c0.3-0.3,0.7-0.5,1.3-0.5c0.7,0,1.3,0.2,2,0.7l2.9,2
		L282.4,82.8z"/>
	<path class="st0" d="M322.6,96.6c-8.5,1-13.9,1.7-16.2,2.1c-2.3,0.4-3.7,0.7-4.4,1.1c-0.7,0.3-1.1,0.5-1.3,0.5
		c-0.2,0-0.3-0.1-0.4-0.2c-0.1-0.2-0.4-0.9-1-2.2c-0.5-1.3-0.9-2.3-1.2-3.1c2.4-0.1,4.2-0.4,5.4-1c1.2-0.6,2.3-1.5,3.2-2.7
		c0.9-1.2,1.9-2.8,2.9-4.6c1-1.8,2.2-4.5,3.5-8c4.8,2.2,7.1,3.7,7.1,4.4c0,0.4-0.4,0.6-1.1,0.7c-0.7,0.1-1.2,0.2-1.5,0.4
		c-0.3,0.2-0.8,0.6-1.4,1.4c-2.3,2.7-5.1,5.8-8.3,9.1l13.3-0.3c-1.4-2.1-2.9-4.2-4.7-6l0.7-1.1c4.3,2,7.2,3.6,8.7,4.9
		c1.5,1.2,2.3,2.4,2.3,3.4c0,1.1-0.3,2.1-0.9,3.2c-0.6,1.1-1.3,1.7-2.2,1.7c-0.3,0-0.6-0.1-0.9-0.4c-0.3-0.3-0.5-0.7-0.8-1.4
		C323.3,98,322.9,97.3,322.6,96.6z M308.3,122.6v12.7c0,0.4-0.2,0.8-0.7,1.2c-0.5,0.4-1.2,0.8-2.2,1.3c-1,0.5-1.6,0.7-2,0.7
		c-0.3,0-0.5-0.2-0.5-0.5l0.1-3.6c0.1-1.4,0.1-3,0.1-5v-22.8c0-2.1-0.1-4.1-0.2-6c1.9,0.6,3.8,1.3,5.7,2.2h9.6l1.8-2.5
		c0.3-0.4,0.6-0.6,0.8-0.6c0.4,0,1.5,0.6,3.2,1.9c1.8,1.3,2.6,2.2,2.6,2.6c0,0.3-0.6,0.8-1.9,1.4v27.5c0,0.9-0.2,1.6-0.5,2.2
		c-0.4,0.6-1.2,1.2-2.6,1.9c-1.4,0.7-2.2,1.1-2.5,1.1c-0.3,0-0.6-0.3-0.8-0.8c-0.6-1.3-1.2-2.3-2.1-3c-0.8-0.7-2.2-1.4-4.1-2.1
		l0.2-1.3c3,0.5,4.8,0.8,5.5,0.8c0.7,0,1.2-0.1,1.4-0.3c0.2-0.2,0.3-0.5,0.3-1.1v-8H308.3z M308.3,104.8v6.4h11.3v-6.4H308.3z
		 M308.3,113.3v7.1h11.3v-7.1H308.3z M335.6,92.3c4.8-3.3,8.8-6.8,12.2-10.6c1.6,1.4,2.9,2.7,3.9,3.8c1,1.1,1.5,1.8,1.5,2.1
		c0,0.3-0.3,0.5-0.8,0.5l-1.4-0.1c-1,0-2.4,0.5-4.2,1.6c-3.9,2.3-7.7,4-11.1,5.1v4.4c0,0.9,0.2,1.4,0.7,1.6c0.5,0.2,2.4,0.3,5.9,0.3
		c3.4,0,5.3-0.1,5.8-0.4c0.4-0.3,0.8-1,1.2-2.3c0.4-1.3,0.9-4.1,1.7-8.4h1.4c0,2.6,0.1,4.5,0.2,5.7c0.1,1.2,0.4,2.1,0.7,2.5
		c0.3,0.4,0.9,0.9,1.6,1.3c0.7,0.4,1.1,0.8,1.1,1.1c0,0.3-0.4,1-1.2,2.1c-0.8,1.1-1.5,1.9-2.3,2.3c-0.7,0.5-2,0.8-3.8,0.9
		c-1.8,0.2-4.4,0.3-7.7,0.3c-3.3,0-5.7-0.1-7.2-0.4c-1.5-0.3-2.4-0.9-2.8-1.7c-0.4-0.8-0.6-2.4-0.6-4.6V86.3c0-2.9-0.1-5.3-0.2-7.2
		c3.4,0.7,5.6,1.2,6.4,1.4c0.8,0.3,1.3,0.6,1.3,1.1c0,0.5-0.8,1.1-2.3,2.1V92.3z M336,119.9c4.2-2.9,8.3-6.4,12.2-10.5
		c3.6,3.2,5.3,5,5.3,5.6c0,0.3-0.2,0.4-0.7,0.4l-1.3-0.1c-0.9,0-2.4,0.6-4.6,1.9c-3.4,1.9-7.1,3.5-11,4.8v6.2c0,0.7,0.1,1.1,0.4,1.3
		c0.2,0.1,1.3,0.3,3.1,0.4c1.8,0.1,3.4,0.2,4.6,0.2c1.2,0,2.5-0.1,3.7-0.2c1.2-0.1,2-0.2,2.3-0.4c0.3-0.2,0.6-0.6,0.9-1.3
		c0.3-0.7,0.6-1.9,0.9-3.5c0.3-1.6,0.7-4,1.1-7.1h1.5c0,3.9,0.1,6.6,0.5,8.1c0.4,1.5,1,2.5,1.7,2.9c0.8,0.5,1.2,0.9,1.2,1.2
		c0,0.3-0.5,1.2-1.5,2.6c-1,1.4-2.4,2.3-4.1,2.5c-1.8,0.3-4.8,0.4-9.1,0.4c-4.3,0-7.3-0.1-9-0.4c-1.7-0.3-2.8-0.8-3.2-1.6
		c-0.4-0.8-0.6-2.4-0.6-4.9v-14.8c0-2.9-0.1-5.3-0.2-7.2c5,0.8,7.5,1.6,7.5,2.3c0,0.3-0.6,1-1.7,1.9V119.9z"/>
	<path class="st0" d="M398.9,120.5v5.1h11.9l2-2.5c0.3-0.4,0.5-0.6,0.9-0.6c0.3,0,1.3,0.6,3,1.9c1.7,1.3,2.5,2.1,2.5,2.5
		c0,0.4-0.7,0.6-2.2,0.6h-18.1v5.3h17.3l2.3-3.2c0.3-0.5,0.7-0.7,1.1-0.7c0.4,0,1.5,0.8,3.2,2.3c1.8,1.5,2.7,2.6,2.7,3
		c0,0.3-0.6,0.5-1.7,0.5h-54.1c-1.2,0-2.1,0.1-2.7,0.4l-1.2-2.6c0.9,0.2,2,0.3,3.2,0.3h24.3v-5.3h-16.7c-1.2,0-2.1,0.1-2.7,0.5
		l-1.3-2.6c0.9,0.2,2,0.3,3.2,0.3h17.4v-5.1h-10.9c0,0.6-0.1,0.9-0.2,1c-0.1,0.1-0.5,0.3-1,0.6c-0.5,0.3-1.4,0.6-2.4,0.9
		c-1.1,0.3-1.7,0.5-1.9,0.5c-0.2,0-0.2-0.2-0.2-0.6c0.2-2,0.3-4.1,0.3-6.3v-7c0-2.2-0.1-4.2-0.2-6.1c2.8,0.7,5,1.4,6.4,2.1h26.3
		l1.4-2.1c0.2-0.3,0.5-0.5,0.8-0.5c0.3,0,0.9,0.3,1.8,0.8c0.9,0.5,1.8,1.1,2.7,1.8c0.9,0.6,1.4,1.1,1.4,1.3c0,0.4-0.7,1-2.2,1.8v4.9
		c0,2.1,0,3.4,0.1,4.1l0.1,1.9c0,0.4-0.2,0.7-0.5,0.9c-0.3,0.2-1,0.5-2.1,0.8c-1.1,0.3-1.9,0.4-2.5,0.4c-0.3,0-0.5-0.3-0.5-0.8v-0.4
		H398.9z M415.8,100.3l2.3-3.7c0.3-0.5,0.6-0.7,1-0.7c0.4,0,1.1,0.4,2,1.2l3,2.4c1,0.9,1.5,1.5,1.5,1.9s-0.5,0.6-1.5,0.6h-53.8
		c-1.2,0-2.1,0.2-2.7,0.5l-1.2-2.5c0.9,0.2,2,0.3,3.2,0.3H415.8z M384.5,82.2h23.7l1.7-2.1c0.2-0.3,0.4-0.4,0.6-0.4
		c0.3,0,1.4,0.5,3.3,1.5c1.9,1,2.8,1.7,2.8,2.2c0,0.5-0.8,1-2.3,1.7v4.6c0,1.2,0,2.6,0.1,4l0.1,2c0,0.3,0,0.5-0.1,0.7
		c-0.1,0.2-0.5,0.4-1.1,0.8c-0.6,0.4-1.4,0.8-2.4,1.2c-0.9,0.4-1.5,0.5-1.8,0.5s-0.4-0.2-0.4-0.6v-1.7h-24.7
		c0.1,0.4,0.1,0.7-0.1,0.9c-0.2,0.2-0.5,0.4-1.1,0.7c-0.6,0.3-1.4,0.6-2.4,0.9c-1,0.3-1.6,0.5-1.9,0.5c-0.2,0-0.3-0.2-0.3-0.7
		c0.2-2.1,0.3-4.2,0.3-6.4V85c0-1.8-0.1-3.6-0.2-5.5C381,80.4,383,81.3,384.5,82.2z M393.3,112v-4.7h-10.9v4.7H393.3z M393.3,118.6
		V114h-10.9v4.6H393.3z M408.8,88.5v-4.4h-24.7v4.4H408.8z M408.8,94.9v-4.6h-24.7v4.6H408.8z M398.9,107.3v4.7h11v-4.7H398.9z
		 M398.9,114v4.6h11V114H398.9z"/>
</g>
<g>
	<g>
		<path class="st0" d="M42.9,167c0.5,2.8,0.8,4.9,0.8,6.1c0,1.2-0.4,2.2-1.1,2.8c-0.7,0.6-1.3,1-1.8,1c-0.5,0-0.9-0.1-1.2-0.3
			c-0.3-0.2-0.5-0.5-0.5-0.9c0-0.4,0.4-1.2,1.3-2.3c0.4-0.6,0.8-1.4,1-2.4c0.2-1,0.4-2.3,0.6-4H42.9z M48.2,169.1
			c0.9-1.3,1.8-3,2.5-5c2.1,1.2,3.2,2,3.2,2.4c0,0.2-0.1,0.3-0.4,0.3c-0.7,0.1-1.3,0.3-1.8,0.8c-1.3,1.3-2.4,2.2-3.5,2.9
			c-0.1,4.3-0.3,7.6-0.8,9.8c1.8,1.1,3.2,2,4.1,2.8c0.9,0.8,1.4,1.5,1.4,2.2c0,0.7-0.2,1.4-0.6,2.2c-0.4,0.8-0.9,1.2-1.5,1.2
			c-0.6,0-1-0.5-1.1-1.4c-0.4-2.1-1.3-4-2.5-5.6c-0.5,2.1-1.3,4-2.4,5.8c-1.1,1.8-2.9,3.8-5.3,6.1l-0.4-0.6c1.5-1.9,2.7-4,3.6-6.1
			c0.9-2.1,1.5-4.3,1.8-6.4c0.3-2.2,0.5-5.1,0.5-8.7c0-3.7-0.2-8.3-0.5-13.8c2,0.4,3.3,0.6,4,0.8c0.7,0.2,1,0.4,1,0.5
			c0,0.2-0.2,0.3-0.5,0.5c-0.4,0.2-0.6,0.4-0.7,0.5c-0.1,0.2-0.1,0.5-0.1,0.9L48.2,169.1z M53.3,170.4c-0.5,0.5-1.4,1.3-2.6,2.4
			l-0.5-0.5c3.7-4.7,6.3-9.9,7.9-15.4c1.6,0.4,2.7,0.8,3.5,1.2c0.7,0.3,1.1,0.6,1.1,0.8c0,0.2-0.3,0.4-0.8,0.5
			c-0.5,0.1-1,0.6-1.5,1.5c-0.5,0.8-0.9,1.6-1.3,2.3h5.6l1-1.4c0.2-0.2,0.4-0.3,0.5-0.3c0.2,0,0.7,0.3,1.5,0.9
			c0.8,0.6,1.5,1,1.9,1.3c0.4,0.3,0.6,0.6,0.6,0.9c0,0.3-0.3,0.6-1,0.7c-0.7,0.1-2.6,1.7-5.7,4.6h4.2l0.7-1.1
			c0.1-0.2,0.3-0.3,0.4-0.3c0.1,0,0.7,0.2,1.6,0.7s1.5,0.8,1.9,1s0.6,0.5,0.6,0.7c0,0.2-0.6,0.6-1.7,1.2v7.8h0.3l1.2-1.8
			c0.2-0.3,0.3-0.4,0.5-0.4c0.1,0,0.6,0.5,1.5,1.4c0.8,0.9,1.2,1.5,1.2,1.7c0,0.2-0.3,0.3-0.9,0.3H64.2c2,4.9,5.9,8.1,11.8,9.5v0.6
			c-1.1,0-2,0.1-2.7,0.4c-0.7,0.2-1.3,0.6-1.6,1c-0.4,0.4-0.6,0.6-0.7,0.6c-0.4,0-1.6-1-3.8-3.1c-2.1-2.1-3.4-5.1-3.8-8.9h-0.6
			c-0.7,3.4-2.2,6-4.5,7.9c-2.3,1.9-6.1,3.6-11.4,5.1l-0.1-0.7c4-1.8,7-3.6,8.9-5.4c1.9-1.9,3.2-4.2,3.9-6.9h-7.9
			c-0.5,0-1,0.1-1.2,0.2l-0.4-1.6c0.4,0.1,0.8,0.2,1.4,0.2h2V170.4z M58.2,164.5c-1,1.5-2.2,3.1-3.6,4.5c0.5,0.2,1.1,0.4,1.8,0.8h5
			c1.4-2.2,2.4-3.9,3.1-5.3H58.2z M60.3,171.1h-3.9v8.8h3.3C60.2,177.7,60.4,174.7,60.3,171.1z M68,179.8v-8.8h-4.4
			c-0.1,3.7-0.3,6.7-0.7,8.8H68z"/>
		<path class="st0" d="M90.8,166l-3.3,12.8c-0.6,2.4-0.9,4.3-0.9,5.7c0,1.5,0.1,2.8,0.2,3.9c0.2,1.1,0.2,1.9,0.2,2.4
			c0,1.8-0.4,2.6-1.2,2.6c-0.8,0-1.5-0.2-2.3-0.7c-0.7-0.5-1.1-1.1-1.1-1.9c0-0.2,0-0.4,0.1-0.6c0.5-2.1,0.8-3.7,0.8-4.8
			s-0.2-1.9-0.7-2.3c-0.5-0.4-1.8-0.8-3.9-1.2l0.1-0.8c1.6,0,2.7-0.1,3.5-0.2c0.7-0.1,1.2-0.3,1.5-0.7c0.3-0.3,0.6-0.9,1-1.7
			l5.3-12.8L90.8,166z M79.1,167.4c1.8,0.7,3.2,1.5,4.3,2.2c1.1,0.7,1.6,1.5,1.6,2.2c0,0.8-0.2,1.5-0.5,2.2
			c-0.3,0.7-0.8,1.1-1.3,1.1c-0.5,0-1-0.4-1.2-1.3c-0.4-1.4-0.9-2.5-1.4-3.3c-0.5-0.8-1.2-1.6-1.9-2.3L79.1,167.4z M83,158.5
			c2.6,0.8,4.3,1.5,5.2,2.1c0.9,0.6,1.4,1.2,1.4,2s-0.2,1.5-0.7,2.2c-0.5,0.7-1,1.1-1.4,1.1c-0.2,0-0.4-0.1-0.5-0.2
			c-0.1-0.1-0.3-0.7-0.7-1.6c-0.4-0.9-0.8-1.8-1.4-2.6c-0.6-0.8-1.3-1.6-2.2-2.4L83,158.5z M99.6,163.9c-2.9,0.3-5,0.4-6.2,0.4
			c-1.3,0-2.1,0-2.5,0l0-0.8c3.1-0.5,6.4-1.2,10-2.1c3.6-0.9,6.4-1.7,8.3-2.5c0.5,0.4,1.1,1.1,1.8,1.8c0.7,0.8,1.1,1.2,1.2,1.4
			c0.1,0.2,0.1,0.3,0.1,0.5c0,0.2-0.1,0.2-0.4,0.2c-0.1,0-0.3-0.1-0.6-0.2c-0.3-0.1-0.7-0.2-1-0.2s-1.1,0.1-2.3,0.4
			c-1.2,0.2-2.8,0.5-4.9,0.7v7.6h5.1l1.8-2.2c0.3-0.3,0.5-0.5,0.7-0.5c0.2,0,0.9,0.6,2.2,1.7c1.2,1.1,1.8,1.8,1.8,2
			c0,0.2-0.3,0.3-0.9,0.3H103v6.3h3.8l0.9-1.4c0.2-0.3,0.4-0.5,0.6-0.5c0.1,0,0.8,0.4,2,1.1c1.2,0.8,1.8,1.2,1.8,1.5
			c0,0.2-0.5,0.6-1.5,1.2v8.8c0,0.4,0,0.8,0,1.1l0.1,0.8c0,0.3-0.5,0.7-1.6,1.2c-1.1,0.4-1.7,0.6-1.9,0.6s-0.2-0.1-0.2-0.4v-3H96
			v2.3c0,0.2,0,0.3-0.1,0.4c-0.1,0.1-0.6,0.3-1.6,0.7c-1,0.4-1.6,0.6-1.7,0.6c-0.1,0-0.2-0.1-0.2-0.4c0.1-0.9,0.2-1.9,0.2-2.9v-10.2
			c0-1.1,0-2.2-0.1-3.3c1.9,0.6,3.5,1.2,4.6,1.8h2.5v-6.3h-7.3c-0.7,0-1.3,0.1-1.6,0.3l-0.8-1.7c0.5,0.1,1.2,0.2,2,0.2h7.8V163.9z
			 M106.9,188.5v-8.7H96v8.7H106.9z"/>
		<path class="st0" d="M123.1,175.8c-1.5,1.7-3.5,3.6-5.9,5.8l-0.5-0.6c4.1-5.4,7.2-10.5,9.3-15.3c2.1,1.2,3.2,1.9,3.2,2.2
			c0,0.1-0.2,0.3-0.7,0.4c-0.3,0.1-0.6,0.5-1.1,1.4c-0.5,0.8-1,1.8-1.7,2.7c0.1,0,0.3,0.1,0.7,0.2c0.4,0.1,0.6,0.2,0.6,0.4
			c0,0.2-0.3,0.4-0.9,0.8v14.9l0.1,4c0,0.3-0.1,0.5-0.3,0.6c-0.2,0.2-0.6,0.4-1.3,0.7c-0.6,0.3-1,0.4-1.2,0.4
			c-0.2,0-0.3-0.1-0.3-0.4V175.8z M125.8,158.8c2.1,1.6,3.1,2.6,3.1,2.8c0,0.1-0.1,0.2-0.2,0.2c-0.2,0-0.3,0-0.6,0
			c-0.2,0-0.6,0.3-1.1,0.8c-1.6,1.6-3.1,2.8-4.2,3.7c-1.2,0.9-2.7,1.9-4.6,3l-0.5-0.6c2-1.9,3.5-3.5,4.6-4.8
			C123.4,162.5,124.6,160.8,125.8,158.8z M132.6,178.5h2.9l0.9-1.1c0.1-0.1,0.2-0.1,0.3-0.1c0.2,0,0.7,0.3,1.5,0.8
			c0.8,0.5,1.2,0.9,1.2,1c0,0.2-0.4,0.5-1.2,0.9v6.2l4.2-3l0.5,0.6c-2.7,2.6-4.4,4.2-4.9,4.8c-0.5,0.5-0.9,0.9-1,1.2
			c-0.1,0.3-0.3,0.4-0.4,0.4c-0.1,0-0.5-0.3-1-0.9c-0.6-0.6-0.9-1.1-1.1-1.4c0.7-0.5,1.1-1.1,1.1-1.7v-6.6h-2.9
			c-0.1,2.6-0.3,4.7-0.6,6.3c-0.3,1.6-0.6,2.8-1,3.5c-0.3,0.7-0.8,1.4-1.5,2.1c-0.7,0.7-1.6,1.5-2.7,2.5l-0.4-0.5
			c0.9-1.3,1.6-2.2,1.8-2.8c0.3-0.5,0.6-1.5,0.8-2.8c0.3-1.3,0.5-2.8,0.5-4.5c0.1-1.7,0.1-3.7,0.1-6
			C130.9,177.6,131.9,178,132.6,178.5z M145.4,168.5h3.8l1.3-1.8c0.3-0.4,0.5-0.5,0.7-0.5c0.2,0,0.8,0.5,1.8,1.5
			c1,1,1.5,1.6,1.5,1.7c0,0.2-0.2,0.2-0.7,0.2h-5.1c2.1,0.7,3.1,1.2,3.1,1.5c0,0.1-0.1,0.2-0.4,0.4c-0.3,0.2-0.5,0.4-0.6,0.6
			c-0.1,0.2-0.2,0.6-0.3,1.2c-0.7,5-1.8,8.9-3.2,11.6c1.7,2.5,4.2,4.8,7.4,6.8v0.6c-1,0-1.9,0-2.5,0.2c-0.6,0.1-1.1,0.3-1.5,0.6
			c-0.4,0.3-0.7,0.5-0.8,0.5c-0.1,0-0.2-0.1-0.5-0.3c-0.2-0.2-0.8-0.9-1.6-2.1s-1.6-2.4-2.2-3.6c-2,2.7-5.7,5.2-11,7.3l-0.4-0.6
			c3.1-2.1,5.4-3.8,6.9-5.2c1.5-1.3,2.6-2.7,3.4-4.1c-0.9-2.6-1.5-6.4-1.8-11.4c-0.5,0.9-1.5,2.2-2.7,3.9l-0.5-0.4
			c0.4-0.7,0.6-1.2,0.8-1.6h-10.1c-0.7,0-1.2,0.1-1.7,0.2l-0.7-1.5c0.5,0.1,1.2,0.2,2,0.2h7l1-1.4c0.1-0.2,0.3-0.3,0.4-0.3
			c0.2,0,0.5,0.2,1.1,0.7c0.5,0.5,1,0.9,1.3,1.3c1.9-3.8,3.3-9.4,4.4-16.6c2.9,1,4.4,1.7,4.4,2c0,0.1-0.2,0.2-0.6,0.3
			c-0.4,0.1-0.6,0.2-0.7,0.3c-0.1,0.1-0.4,1.1-1,2.8C146.6,165.5,146,167.1,145.4,168.5z M134,169.8v-8.3c0-1.9,0-3.1,0-3.5
			c1,0.1,1.9,0.3,2.7,0.5c0.9,0.2,1.3,0.4,1.3,0.6c0,0.2-0.4,0.5-1.3,0.9v9.7h2.2v-5c0-1,0-1.7-0.1-2.1c0.6,0,1.3,0.2,2.2,0.4
			c0.9,0.2,1.4,0.4,1.4,0.6c0,0.2-0.3,0.4-0.9,0.8v4.3l0.1,1.7c0,0.3-0.1,0.5-0.3,0.6c-0.2,0.2-0.5,0.3-1,0.5
			c-0.5,0.2-0.9,0.3-1.1,0.3c-0.2,0-0.3-0.1-0.3-0.4v-0.7h-7l-0.7,0.9c-0.2,0.2-0.3,0.3-0.4,0.3c-0.2,0-0.9-0.4-2.2-1.3
			c0.4-0.4,0.6-0.6,0.7-0.8c0.1-0.2,0.1-0.6,0.1-1.1v-4.1c0-0.6,0-1.3-0.1-2.3c2.3,0.5,3.4,0.9,3.4,1.1c0,0.2-0.3,0.5-0.8,0.8v5.6
			H134z M147.9,169.7h-3c-0.4,0.9-0.9,1.8-1.4,2.7c0.7,5.1,1.5,8.4,2.4,9.9C146.8,179.7,147.5,175.5,147.9,169.7z"/>
		<path class="st0" d="M178.5,170.6h3.7l0.6-0.8c0.1-0.2,0.3-0.3,0.4-0.3c0.1,0,0.6,0.2,1.4,0.7c0.8,0.5,1.2,0.8,1.2,0.9
			c0,0.1-0.3,0.4-0.8,0.7v1.1c0,0.4,0,0.7,0,0.9c0,0.2,0,0.3,0,0.4c0,0.2-0.3,0.4-1,0.7c-0.7,0.3-1.1,0.4-1.2,0.4
			c-0.1,0-0.2-0.1-0.2-0.2v-0.8h-4.1v0.2c0,0.3-0.2,0.4-0.5,0.5c2.2,0.3,3.3,0.7,3.3,0.9c0,0.2-0.3,0.4-0.9,0.7v0.2h5.5l1.1-1.5
			c0.2-0.3,0.4-0.4,0.5-0.4c0.2,0,0.7,0.4,1.7,1.2c1,0.8,1.5,1.3,1.5,1.4c0,0.2-0.2,0.3-0.7,0.3h-9.6v1.8h3.3l0.9-1.2
			c0.2-0.3,0.4-0.4,0.5-0.4c0.1,0,0.6,0.4,1.5,1c0.8,0.7,1.3,1.1,1.3,1.3c0,0.2-0.2,0.2-0.7,0.2h-6.8v1.7h6.6l1.1-1.5
			c0.2-0.2,0.4-0.4,0.5-0.4c0.2,0,0.8,0.4,1.7,1.2c1,0.8,1.5,1.2,1.5,1.4s-0.2,0.3-0.7,0.3H175c1.3,1.8,3,3.1,4.9,3.9
			c1.9-1.4,3.3-2.6,4.2-3.5c1.8,1.3,2.7,2.2,2.7,2.6c0,0.1-0.1,0.2-0.3,0.2c-0.2,0-0.3,0-0.5-0.1c-0.2,0-0.4-0.1-0.5-0.1
			c-0.5,0-2,0.4-4.4,1.3c2.5,0.9,6.3,1.6,11.5,2.2v0.7c-2.4,0.1-3.9,0.7-4.5,1.8c-0.2,0.3-0.3,0.4-0.5,0.4c-0.4,0-1.7-0.5-4.1-1.4
			c-2.4-0.9-4.4-2-6-3.3c-1.6-1.3-2.8-2.9-3.6-4.9h-1.3c-0.5,0.4-1.1,0.9-1.8,1.4v5.1l4.9-2.4l0.4,0.5c-4,3.1-6.2,4.8-6.5,5.2
			c-0.4,0.4-0.6,0.5-0.7,0.5c-0.3,0-0.9-0.9-1.9-2.8c0.7-0.6,1.1-1.3,1.1-2.1v-2.1c-2.9,2.1-6.7,3.7-11.4,4.9l-0.2-0.6
			c4.5-1.5,8.5-4.1,11.9-7.8h-8.7c-0.7,0-1.2,0.1-1.6,0.3l-0.6-1.5c0.5,0.1,1.2,0.2,1.9,0.2h9.1v-1.7h-5.5c-0.7,0-1.2,0.1-1.6,0.3
			l-0.6-1.4c0.5,0.1,1.1,0.2,1.9,0.2h5.9v-1.8h-7.3c-0.7,0-1.2,0.1-1.6,0.3l-0.6-1.5c0.5,0.1,1.2,0.2,1.9,0.2h7.6
			c0-0.5,0-1.3-0.1-2.2c0.8,0.2,1.6,0.3,2.4,0.5c0.7,0.2,1.1,0.4,1.1,0.6c0,0.2-0.3,0.4-0.8,0.6v0.4h6.8c0-0.4,0-1-0.1-1.8
			c-0.5,0.1-1,0.2-1.5,0.2c-0.2,0-0.3-0.1-0.3-0.4c0-0.3,0-0.8,0-1.6v-1.6c0-0.9,0-1.6,0-2.1C177.3,170,178.2,170.4,178.5,170.6z
			 M172.8,161.1h-12c-0.7,0-1.2,0.1-1.6,0.3l-0.6-1.4c0.5,0.1,1.1,0.2,1.9,0.2h12.4c0-1.2,0-2.3-0.1-3.2c0.7,0.1,1.5,0.3,2.3,0.6
			c0.9,0.2,1.4,0.4,1.7,0.5c0.2,0.1,0.4,0.2,0.4,0.4c0,0.2-0.4,0.5-1.3,1v0.7h9.7l1.5-2c0.2-0.3,0.4-0.4,0.6-0.4
			c0.2,0,0.9,0.5,2.2,1.4c1.2,1,1.9,1.5,1.9,1.7c0,0.2-0.2,0.3-0.7,0.3h-15.1v1.6h6.1l0.5-0.8c0.1-0.1,0.2-0.2,0.3-0.2
			c0.1,0,0.5,0.1,1.2,0.4c0.7,0.3,1.2,0.5,1.5,0.7c0.3,0.2,0.5,0.3,0.5,0.5s-0.4,0.4-1.1,0.8v0.8l0,1.3c0,0.3-0.4,0.5-1.1,0.8
			c-0.7,0.2-1.2,0.3-1.4,0.3c-0.2,0-0.3-0.1-0.3-0.2v-0.5h-6.4v1.5h11.6l1.1-1c0.3-0.3,0.5-0.4,0.7-0.4c0.2,0,0.6,0.2,1.2,0.6
			l1.6,1.1c0.4,0.3,0.7,0.6,0.7,0.9c0,0.3-0.4,0.4-1.1,0.5c-0.7,0-1.3,0.2-1.9,0.5c-0.5,0.3-1.5,1.1-2.8,2.3l-0.6-0.3
			c0.5-1.2,0.9-2.2,1.2-3.2H162c-0.1,1.5-0.5,2.7-1.3,3.6c-0.8,0.9-1.5,1.4-2.2,1.4s-1.1-0.1-1.4-0.4c-0.3-0.3-0.5-0.5-0.5-0.8
			c0-0.5,0.4-1.1,1.3-1.6c0.8-0.6,1.5-1.2,1.9-2c0.4-0.7,0.9-2,1.3-3.7h0.6c0.1,0.9,0.2,1.8,0.3,2.6h10.8v-1.5h-6
			c0,0.2-0.1,0.3-0.3,0.4c-0.2,0.1-0.5,0.2-0.9,0.3c-0.4,0.1-0.8,0.2-1,0.2c-0.2,0-0.4-0.1-0.4-0.3l0-0.8c0-0.2,0-0.5,0-0.8v-1.8
			c0-1.2,0-1.9,0-2.2c1,0.3,2.1,0.7,3.1,1.2h5.5V161.1z M166.5,170.3h3.5l0.6-0.5c0.1-0.2,0.3-0.2,0.4-0.2c0.1,0,0.5,0.2,1.2,0.5
			c0.6,0.3,1.1,0.5,1.3,0.6c0.2,0.1,0.3,0.2,0.3,0.4c0,0.1-0.3,0.3-0.8,0.6v1.1l0,1.1c0,0.2-0.1,0.3-0.2,0.4
			c-0.2,0.1-0.4,0.2-0.9,0.4c-0.4,0.1-0.8,0.2-1,0.2c-0.2,0-0.4-0.1-0.4-0.2v-0.5h-4.1v0.2c0,0.2-0.1,0.3-0.2,0.5
			c-0.2,0.1-0.4,0.2-0.8,0.4c-0.4,0.1-0.7,0.2-1,0.2c-0.1,0-0.2-0.1-0.2-0.2l0-2v-1.6c0-0.9,0-1.6,0-2.1
			C164.8,169.6,165.6,169.9,166.5,170.3z M170.4,173.2v-2h-4.1v2H170.4z M172.8,165.7v-2.2h-6v2.2H172.8z M177.7,177.8H171v1.8h6.8
			V177.8z M171,180.5v1.7h6.8v-1.7H171z M175.8,163.5v2.2h6.4v-2.2H175.8z M182.5,173.3v-1.8h-4.1v1.8H182.5z"/>
		<path class="st0" d="M202.1,160.8h4.2l0.9-1.6c0.1-0.3,0.3-0.4,0.5-0.4c0.2,0,0.7,0.3,1.4,0.8l1.7,1.2c0.4,0.3,0.6,0.5,0.6,0.7
			c0,0.2-0.5,0.6-1.4,1.2v24.9c0,1.1-0.1,2-0.3,2.4c-0.2,0.5-0.8,1-1.8,1.5c-1,0.5-1.6,0.8-1.9,0.8c-0.3,0-0.4-0.1-0.5-0.4
			c-0.2-0.9-0.7-1.6-1.3-2.2c-0.7-0.5-1.6-0.9-2.7-1.2v-0.9c2.1,0.3,3.5,0.5,4,0.5c0.5,0,0.9-0.1,1-0.2c0.1-0.1,0.2-0.3,0.2-0.7
			v-9.8h-4.7c-0.1,3.6-0.5,6.5-1.4,8.7c-0.9,2.2-2.5,4.6-4.9,7.3l-0.7-0.5c1.2-2,2.1-4,2.8-6s1-5.9,1-11.5c0-5.6-0.2-11-0.5-16.3
			C200,159.7,201.2,160.2,202.1,160.8z M202.1,168.6h4.7V162h-4.8C202.1,164.8,202.1,167,202.1,168.6z M206.8,169.9h-4.7
			c0,1.4,0,3.5,0,6.2h4.7V169.9z M217.7,162.3c0.1,9.9,0,16-0.2,18.6c-0.2,2.5-0.8,4.7-2,6.4c-1.1,1.7-3.2,3.7-6.4,6.1l-0.6-0.7
			c1.7-1.7,2.9-3.2,3.8-4.6c0.8-1.3,1.4-2.9,1.8-4.6c0.3-1.7,0.5-4.3,0.5-7.8c0-4.5-0.1-9.9-0.4-16.1c1.2,0.4,2.3,0.9,3.4,1.6h4.2
			l1.1-1.7c0.2-0.2,0.3-0.4,0.5-0.4c0.2,0,0.5,0.2,1,0.5c0.5,0.4,1,0.7,1.5,1.1c0.5,0.4,0.8,0.6,1.1,0.9c0.2,0.2,0.4,0.4,0.4,0.6
			c0,0.3-0.6,0.7-1.8,1.2v24.6c0,0.3,0.1,0.5,0.3,0.6c0.2,0.1,0.6,0.1,1.4,0.1c0.5,0,0.9-0.1,1.1-0.4c0.2-0.3,0.4-1,0.6-2.2
			c0.2-1.2,0.4-3.2,0.7-6.1h0.9c-0.1,2.7,0,4.5,0.3,5.6c0.3,1.1,0.8,1.9,1.5,2.5c0.2,0.1,0.2,0.3,0.2,0.4c0,0.2-0.2,0.6-0.6,1.4
			c-0.4,0.7-0.9,1.2-1.4,1.4c-0.5,0.2-1.5,0.3-3.1,0.3c-1.6,0-2.7-0.1-3.5-0.2c-0.7-0.1-1.2-0.3-1.4-0.6c-0.2-0.3-0.4-0.8-0.4-1.4
			v-27.1H217.7z"/>
		<path class="st0" d="M254.3,162.5c-0.8-1.8-1.9-3.3-3.4-4.6l0.3-0.7c1.7,0.3,3.2,0.6,4.3,1c1.2,0.4,1.7,1,1.7,1.8
			c0,0.4-0.1,0.9-0.4,1.4c-0.3,0.5-0.7,0.9-1.2,1.2h7.5l1.7-2.3c0.2-0.3,0.5-0.4,0.7-0.4c0.3,0,0.6,0.1,1,0.4
			c0.4,0.3,0.8,0.7,1.4,1.2c0.6,0.5,1,1,1.3,1.3c0.3,0.3,0.4,0.6,0.4,0.7c0,0.2-0.3,0.3-0.9,0.3h-25.2c-0.2,6-0.4,10.5-0.6,13.7
			c-0.2,3.2-0.8,6-1.8,8.4c-1,2.4-2.8,5.1-5.4,8l-0.5-0.4c2.1-3.7,3.4-7.3,3.9-10.8c0.5-3.4,0.8-8.2,0.8-14.2c0-2.7-0.1-5.2-0.2-7.7
			c1.3,0.4,2.6,1,4.1,1.8H254.3z M255.8,177.1h-6.3v9.3c1.3-0.9,3.2-2.1,5.7-3.7l0.6,0.6c-4.5,4.7-7,7.5-7.6,8.5
			c-0.2,0.4-0.4,0.6-0.6,0.6c-0.4,0-1.3-1-2.6-3.1c0.9-1,1.3-2,1.3-3.1v-14.6c0-1.7,0-3.2-0.1-4.4c1.9,0.5,3.3,1.1,4.3,1.6
			c4.5-0.8,8.8-2,12.8-3.7c0.8,0.8,1.5,1.5,2.1,2.3c0.6,0.7,0.9,1.2,0.9,1.4c0,0.2-0.1,0.3-0.4,0.3c-0.2,0-0.5-0.1-0.8-0.2
			c-0.3-0.1-0.7-0.2-1.1-0.2c-0.4,0-1.2,0.1-2.3,0.2l-3.9,0.5c0.1,2.5,0.4,4.7,0.7,6.5h4.9l1.4-2c0.3-0.4,0.6-0.6,0.9-0.6
			s1,0.5,2.1,1.5c1.1,1,1.6,1.6,1.6,1.9c0,0.3-0.3,0.4-0.8,0.4h-9.9c0.5,2.1,1.2,3.9,2.1,5.4c0.9,1.5,1.9,2.7,3.1,3.7
			c1.2,1,1.9,1.5,2.2,1.5c0.3,0,0.5-0.2,0.7-0.5c0.2-0.3,0.5-1.2,1-2.5c0.5-1.4,0.8-2.6,1.2-3.7l0.8,0.1c-0.3,2.3-0.5,4.3-0.5,6.1
			c0,1.8,0.4,3.3,1.2,4.5c0.2,0.3,0.3,0.6,0.3,0.8c0,0.4-0.3,0.5-1,0.5c-1.3,0-3-0.6-5.1-1.8c-2.1-1.2-3.9-3-5.5-5.3
			C257.8,183.7,256.6,180.7,255.8,177.1z M249.5,175.9h6.1c-0.3-1.8-0.5-3.9-0.7-6.1c-2.2,0.3-4,0.4-5.4,0.4V175.9z M253.8,186.2
			c1.8,0.6,3.2,1.3,4.2,1.9c1,0.7,1.5,1.3,1.5,2c0,0.7-0.3,1.4-0.8,2.1c-0.6,0.7-1.1,1.1-1.5,1.1c-0.3,0-0.4-0.1-0.5-0.3
			c-0.1-0.2-0.2-0.6-0.4-1.3c-0.2-0.7-0.5-1.4-0.8-2.2c-0.4-0.8-1-1.7-1.9-2.8L253.8,186.2z"/>
		<path class="st0" d="M284.5,169.4c1.5-3.4,2.5-6,2.9-7.7c2.2,1.2,3.4,2,3.4,2.4c0,0.2-0.2,0.3-0.6,0.3c-0.4,0-0.9,0.3-1.5,1
			c-0.6,0.6-1.9,2.1-3.8,4.5l-0.4-0.3v1.5h1.3l1.2-1.4c0.2-0.3,0.5-0.4,0.7-0.4c0.2,0,0.7,0.4,1.4,1.2c0.7,0.8,1.1,1.3,1.1,1.5
			c0,0.2-0.3,0.3-0.8,0.3h-4.9v3c2.1,0.8,3.5,1.5,4.2,2.2c0.6,0.7,1,1.3,1,2.1c0,0.7-0.2,1.3-0.5,1.7c-0.3,0.4-0.7,0.6-1.1,0.6
			c-0.4,0-0.7-0.1-0.9-0.2c-0.2-0.2-0.3-0.5-0.5-1c-0.5-2.1-1.2-3.5-2.1-4.4v14.6c0,0.5-0.1,0.8-0.2,0.9c-0.2,0.2-0.6,0.4-1.2,0.6
			c-0.7,0.2-1.1,0.4-1.3,0.4c-0.2,0-0.3-0.1-0.3-0.4l0.1-2.1c0-0.9,0-1.9,0-3.1v-10.5c-1.1,2.2-2.2,4.1-3.2,5.6
			c-1,1.5-2.4,3-4.1,4.7l-0.5-0.4c2.7-4.3,4.9-9.1,6.5-14.3h-3.2c-0.7,0-1.2,0.1-1.7,0.2l-0.8-1.7c0.5,0.1,1.2,0.2,2,0.2h5.1v-9.3
			c0-1.7,0-3.2-0.1-4.5c1.6,0.4,2.8,0.7,3.4,0.9c0.7,0.2,1,0.4,1,0.6c0,0.2-0.4,0.5-1.3,1V169.4z M276.1,161.8
			c1.8,1.4,3,2.5,3.6,3.2c0.6,0.8,0.9,1.5,0.9,2.2c0,0.7-0.2,1.3-0.6,1.9c-0.4,0.6-0.8,0.9-1.2,0.9c-0.4,0-0.6-0.1-0.7-0.3
			c-0.1-0.2-0.2-0.5-0.3-1c-0.4-2.6-1.1-4.7-2.2-6.3L276.1,161.8z M296.8,162.7h-3.9c-0.7,0-1.3,0.1-1.6,0.3l-0.9-1.6
			c0.5,0.1,1.2,0.2,2,0.2h4.5v-0.9c0-1.3,0-2.5-0.1-3.5c1.2,0.2,2.1,0.3,2.8,0.5c0.7,0.2,1.2,0.3,1.3,0.4c0.2,0.1,0.3,0.2,0.3,0.4
			c0,0.2-0.4,0.5-1.1,0.9v2.1h4.1l1.3-1.7c0.2-0.3,0.5-0.5,0.8-0.5c0.3,0,1,0.5,2.1,1.4c1.1,0.9,1.6,1.5,1.6,1.7
			c0,0.2-0.3,0.3-0.8,0.3h-9.1v3.3h2.9l1.2-1.6c0.2-0.3,0.5-0.5,0.7-0.5c0.2,0,0.9,0.4,1.9,1.3c1,0.8,1.5,1.4,1.5,1.6
			c0,0.2-0.3,0.3-0.9,0.3h-7.4v3.6h4.8l1.4-1.8c0.3-0.4,0.6-0.5,0.9-0.5c0.3,0,1,0.5,2,1.4c1.1,1,1.6,1.6,1.6,1.8
			c0,0.2-0.3,0.3-0.9,0.3h-17.4c-0.7,0-1.3,0.1-1.6,0.3l-0.7-1.6c0.5,0.1,1.2,0.2,2,0.2h4.7v-3.6h-3.7c-0.7,0-1.3,0.1-1.6,0.3
			l-0.9-1.6c0.5,0.1,1.2,0.2,2,0.2h4.3V162.7z M294.8,174.9h8.2l0.9-1.4c0.2-0.2,0.4-0.3,0.6-0.3c0.2,0,0.9,0.3,2,0.9
			c1.1,0.6,1.6,1.1,1.6,1.4c0,0.3-0.4,0.7-1.1,1v12.3c0,1.2-0.1,2-0.3,2.5c-0.2,0.5-0.8,1-1.7,1.5c-0.9,0.5-1.5,0.8-1.7,0.8
			c-0.2,0-0.5-0.2-0.7-0.7c-0.4-1-1-1.7-1.8-2.2c-0.7-0.5-1.8-1-3.1-1.4l0.2-0.9c2.3,0.5,3.8,0.8,4.3,0.8c0.5,0,0.9-0.1,1.1-0.2
			c0.2-0.1,0.3-0.4,0.3-0.9v-3.3h-9.2v6.8c0,0.3,0,0.5-0.1,0.6c-0.1,0.1-0.3,0.3-0.6,0.5c-0.4,0.2-0.8,0.4-1.3,0.5
			c-0.5,0.2-0.9,0.2-1.1,0.2c-0.2,0-0.3-0.1-0.3-0.4l0.1-2.2c0-0.9,0-1.9,0-3.1V178c0-1.7,0-3.2-0.1-4.5
			C292.5,173.9,293.8,174.3,294.8,174.9z M303.5,178.9v-2.8h-9.2v2.8H303.5z M303.5,183.4v-3.2h-9.2v3.2H303.5z"/>
		<path class="st0" d="M321.3,167.9c-2.8,3.1-5.2,5.4-7.4,6.9l-0.4-0.5c4.6-4.9,8.2-10.6,10.9-17c1.5,0.7,2.5,1.3,3.1,1.8
			c0.6,0.5,0.9,0.8,0.9,1.1c0,0.3-0.2,0.5-0.7,0.5c-0.4,0-0.7,0.2-1.1,0.5c-0.4,0.4-1.1,1.3-2.1,2.8c0.6,0.1,0.9,0.2,0.9,0.4
			c0,0.2-0.3,0.4-0.9,0.6v12.2c0,0.4-0.1,0.6-0.4,0.8c-0.2,0.2-0.7,0.4-1.4,0.7s-1.1,0.5-1.3,0.5c-0.2,0-0.3-0.2-0.3-0.5l0.1-3.6
			c0-1.1,0-2.2,0-3.2V167.9z M333.3,182h11.2l1.5-2.1c0.3-0.4,0.5-0.5,0.7-0.5c0.2,0,0.6,0.3,1.3,0.9c0.7,0.6,1.2,1.1,1.7,1.5
			c0.5,0.4,0.7,0.7,0.7,1s-0.3,0.4-0.8,0.4h-16.3v4.6l0.1,4.4c0,0.2,0,0.4-0.1,0.5c-0.1,0.1-0.3,0.3-0.8,0.5c-0.5,0.2-1,0.5-1.5,0.6
			c-0.5,0.2-0.9,0.3-1.1,0.3c-0.2,0-0.3-0.2-0.3-0.5l0.1-1.8c0-1.2,0-2.5,0-4v-4.6h-13.3c-0.7,0-1.3,0.1-1.6,0.3l-0.7-1.6
			c0.5,0.1,1.2,0.2,2,0.2h13.7v-1.6c0-1.5,0-2.8-0.1-3.9c0.9,0.1,1.9,0.4,3.2,0.8c1.3,0.4,1.9,0.7,1.9,0.9c0,0.2-0.5,0.6-1.4,1.1
			V182z M335.4,169.1v3c0,1,0.3,1.6,1,1.8c0.6,0.2,2.1,0.3,4.3,0.3c2.2,0,3.6-0.2,4.2-0.5c0.6-0.4,1.1-2.3,1.6-5.9h0.9
			c0,0.5,0,0.9,0,1.3c0,2.4,0.4,3.9,1.3,4.4c0.5,0.3,0.8,0.6,0.8,0.9c0,0.3-0.3,0.8-0.8,1.4c-0.6,0.6-1.4,1-2.6,1.1
			c-1.2,0.1-3.1,0.2-5.6,0.2c-2.5,0-4.3-0.1-5.4-0.4c-1.1-0.2-1.8-0.6-2.2-1.2c-0.4-0.6-0.6-1.4-0.6-2.5v-2.6
			c-2.3,0.9-4.7,1.6-7.2,2.4l0-0.6c2.3-1,4.7-2.3,7.3-3.8v-6.9c0-1.6,0-2.9-0.1-4c3.2,0.6,4.8,1.1,4.8,1.5c0,0.2-0.5,0.6-1.4,1.3v6
			c3-2.1,5.4-4,7.1-5.8c1.4,1.2,2.4,2,2.9,2.5c0.5,0.4,0.7,0.8,0.7,1c0,0.2-0.2,0.3-0.6,0.3c-0.1,0-0.3,0-0.4,0c-0.1,0-0.3,0-0.5,0
			c-0.2,0-0.5,0.1-1,0.4c-0.5,0.2-1.4,0.8-2.9,1.8C339.3,167.3,337.5,168.2,335.4,169.1z"/>
		<path class="st0" d="M363.9,165.9l-3.6,12.1c-0.3,1.1-0.5,2-0.6,2.7c-0.1,0.7-0.1,1.6-0.1,2.6c0,1,0,2.5,0.1,4.6
			c0.1,2,0.1,3.1,0.1,3.3c0,1.6-0.4,2.4-1.2,2.4c-0.9,0-1.6-0.3-2.2-0.9c-0.6-0.6-0.9-1.3-0.9-2.2c0-0.3,0-0.5,0.1-0.8
			c0.6-2.7,0.9-4.5,0.9-5.3c0-0.8-0.1-1.4-0.2-1.7c-0.1-0.3-0.4-0.5-0.9-0.7c-0.5-0.2-1.3-0.4-2.6-0.7l0.1-0.8
			c0.8,0.1,1.5,0.1,2.1,0.1c0.6,0,1.2-0.2,1.6-0.5c0.4-0.3,0.9-1.1,1.5-2.4l4.9-12.2L363.9,165.9z M353.2,166.4c2,0.7,3.5,1.4,4.5,2
			c1,0.7,1.5,1.4,1.5,2.1c0,0.7-0.2,1.5-0.7,2.2c-0.5,0.7-0.9,1.1-1.4,1.1c-0.4,0-0.8-0.4-1-1.2c-0.5-1.9-1.6-3.7-3.3-5.5
			L353.2,166.4z M356.3,158.5c2.1,0.5,3.8,1.1,4.8,1.6c1.1,0.5,1.6,1.2,1.6,2c0,0.8-0.2,1.5-0.7,2.3c-0.5,0.7-0.9,1.1-1.3,1.1
			c-0.2,0-0.4-0.1-0.5-0.2c-0.1-0.1-0.3-0.5-0.5-1c-0.8-2.1-2-3.8-3.7-5.2L356.3,158.5z M365.6,177.9c-1.4,1.8-3.1,3.6-5.1,5.5
			l-0.5-0.5c3.7-4.8,6.6-10.7,8.6-17.8c1.3,0.5,2.2,0.9,2.7,1.3c0.6,0.4,0.9,0.6,0.9,0.7c0,0.1-0.2,0.3-0.6,0.5
			c-0.4,0.2-0.7,0.7-1,1.5c-0.6,1.6-1.2,3.1-2,4.4v19.2c0,0.2-0.1,0.4-0.3,0.6c-0.2,0.1-0.6,0.3-1.3,0.6c-0.7,0.3-1.1,0.4-1.3,0.4
			c-0.2,0-0.3-0.1-0.3-0.4l0.1-3.1c0-1,0-1.9,0-2.7V177.9z M374.5,163.3c-0.2-0.3-0.3-0.8-0.5-1.6c-0.2-0.8-0.5-1.5-0.9-2.1
			c-0.4-0.6-1-1.3-1.7-2l0.4-0.5c1.9,0.4,3.4,0.9,4.5,1.5c1.1,0.7,1.6,1.3,1.6,2c0,0.4-0.2,0.9-0.5,1.4c-0.3,0.5-0.8,1-1.3,1.3h6
			l1.8-2.5c0.2-0.2,0.3-0.3,0.5-0.3c0.1,0,0.6,0.3,1.4,0.9c0.8,0.6,1.5,1.1,2,1.6c0.5,0.5,0.7,0.8,0.7,1.1c0,0.3-0.2,0.4-0.7,0.4
			h-22.5c-0.7,0-1.1,0.1-1.4,0.2l-0.6-1.5c0.5,0.1,1.1,0.2,1.7,0.2H374.5z M373.5,177.7c-1,1.6-2.2,3.3-3.8,5.1l-0.7-0.5
			c2.9-4.7,5-10.4,6.2-16.9c2.6,0.9,4,1.5,4,1.8c0,0.1-0.2,0.2-0.5,0.3c-0.3,0.1-0.5,0.3-0.6,0.6l-1.1,2.6h4.3l1-1.2
			c0.2-0.2,0.4-0.4,0.6-0.4c0.2,0,0.6,0.3,1.4,0.8c0.7,0.5,1.3,0.9,1.6,1.2c0.4,0.2,0.5,0.5,0.5,0.6c0,0.2-0.3,0.4-0.9,0.6
			c-0.6,0.2-1,0.8-1.2,1.6c-0.7,2.9-1.4,5.2-2.2,6.9c-0.7,1.7-1.6,3.2-2.6,4.5c2.5,2,5.7,3.6,9.6,4.7l-0.2,0.7
			c-1.2,0-2.2,0.1-2.9,0.3c-0.7,0.2-1.4,0.8-2,1.5c-0.1,0.1-0.2,0.2-0.3,0.2c-0.3,0-1.1-0.6-2.6-1.8c-1.4-1.2-2.6-2.3-3.5-3.4
			c-2.1,2.1-5,4.2-8.8,6.4l-0.4-0.7c3.3-2.6,5.9-5.1,7.7-7.6C375.1,183.5,374.1,180.9,373.5,177.7z M376.6,171.8
			c-0.3,0.6-0.5,1-0.6,1.3c2.3,1.2,3.4,2.4,3.4,3.4c0,0.6-0.2,1.1-0.6,1.7c-0.4,0.5-0.9,0.8-1.4,0.8c-0.3,0-0.6-0.4-0.7-1.2
			c-0.2-1.6-0.6-2.9-1-4c-0.4,0.9-0.9,1.7-1.4,2.6c0.9,2.8,2,5.2,3.5,7.2c1.8-3.1,3.1-7,4-11.8H376.6z"/>
	</g>
</g>
</svg>
